<svg xmlns="http://www.w3.org/2000/svg"><symbol id="instagram" viewBox="0 0 72 72"><circle cx="36" cy="36" r="35.6" fill="#986184"/><path fill="#fff" d="M47 18.4H25.2a6.6 6.6 0 0 0-6.5 6.5v22a6.5 6.5 0 0 0 6.5 6.5H47a6.5 6.5 0 0 0 6.5-6.5v-22a6.6 6.6 0 0 0-6.5-6.5zm-3.6 4h6.1v6.1h-6.1zm-1.2 13.5a6.1 6.1 0 0 1-6.1 6.1 6.1 6.1 0 0 1-6.1-6.1 5.8 5.8 0 0 1 1.1-3.4 5.9 5.9 0 0 1 5-2.7 6.1 6.1 0 0 1 5 2.7 5.8 5.8 0 0 1 1.1 3.4zm7.9 10.9a3.1 3.1 0 0 1-3.1 3.1H25.1a3.1 3.1 0 0 1-3.1-3.1V32.5h5.3a9.4 9.4 0 0 0-.7 3.4 9.5 9.5 0 1 0 18.9 0 9.3 9.3 0 0 0-.6-3.4h5.2z"/></symbol><symbol id="facebook" viewBox="0 0 72 72"><circle cx="36" cy="36" r="35.6" fill="#986184"/><path fill="#fff" d="M40.5 23.6h4.3v-6.8h-7a7.1 7.1 0 0 0-7.2 7.1v5.3h-3.8v6.7h3.8v19.2h8.1V35.9h5.5v-6.7h-5.5v-3.8a1.9 1.9 0 0 1 1.8-1.8z"/></symbol><symbol id="cart" viewBox="0 0 72 72"><path fill="#fff" d="M10.9 12.3H4.3a3.8 3.8 0 0 1-3.1-1.4 3 3 0 0 1 .4-4.3 5.8 5.8 0 0 1 3.8-1.2c3-.1 6-.1 9.1 0s3.2 1.1 3.5 3.3a37 37 0 0 1 .3 3.7h49.1a3.5 3.5 0 0 1 3.8 3.4 8.1 8.1 0 0 1 0 2.2c-1.2 7.6-2.4 15.3-3.4 23a4.3 4.3 0 0 1-4.5 3.7c-2 .1-4-.1-6.1-.1H23.4l.7 3.9h36.4a3.8 3.8 0 0 1 3.6 4.7 2.8 2.8 0 0 1-2.5 2.1l-1.6.2H22.4a6.3 6.3 0 0 1-1.9-.3 3.5 3.5 0 0 1-3.1-3.4c-.6-3.5-1.1-7-1.7-10.5-1.3-7.6-2.6-15.3-3.8-23-.4-2-.7-3.9-1-6zm46.7 46a5.4 5.4 0 0 1 5.5 5.5 5.5 5.5 0 0 1-5.5 5.5 5.5 5.5 0 0 1-5.5-5.5 5.4 5.4 0 0 1 5.5-5.5zm-35.9 5.5a5.5 5.5 0 0 1 5.6-5.5 5.5 5.5 0 0 1 .1 11 5.5 5.5 0 0 1-5.7-5.5z"/></symbol><symbol id="hamburger" viewBox="0 0 72 72"><path fill="#fff" d="M35.9 66.1H6.2a5.4 5.4 0 0 1-5.3-3.7 5.2 5.2 0 0 1 4.5-6.6h60c1.9 0 3.6.4 4.8 2a5.1 5.1 0 0 1 .6 5.3 4.6 4.6 0 0 1-4.4 3zm0-24.9H6.1A5.2 5.2 0 0 1 5 30.9h60.5a5.4 5.4 0 0 1 5.3 3 5.2 5.2 0 0 1-4.3 7.4H35.9zm.1-25c-9.9 0-19.9.1-29.8 0a5.2 5.2 0 0 1-5.5-4.7A5.1 5.1 0 0 1 5 6l1.9-.2h58.6a5.2 5.2 0 0 1 4.4 1.8 4.9 4.9 0 0 1 .9 5.5 5 5 0 0 1-4.9 3.1c-5.2.1-10.3 0-15.5 0z"/></symbol><symbol id="twitter" viewBox="0 0 72 72"><circle cx="36" cy="36" r="35.6" fill="#986184"/><path fill="#fff" d="M50.8 28.4c.1.8 1.3 12.8-8.1 20.3-7.2 5.9-17.7 6.5-26.2 1.4a15.7 15.7 0 0 0 7.1-1.2 15.4 15.4 0 0 0 4.1-2.2 9.1 9.1 0 0 1-5-2.9 9.9 9.9 0 0 1-1.8-2.9h1.6l1.7-.6a8.7 8.7 0 0 1-5.3-4.1 8.5 8.5 0 0 1-.9-3.6 2.2 2.2 0 0 0 1.2.6 3.2 3.2 0 0 0 2 0 9.7 9.7 0 0 1-2.4-3.9 10 10 0 0 1 .6-7.5 22.1 22.1 0 0 0 3.7 4 22 22 0 0 0 12.1 4.8c-.9-4.9 1.8-9.3 5.6-10.4a8.4 8.4 0 0 1 8.1 2.4 10 10 0 0 0 2-.4 6.2 6.2 0 0 0 2.7-1.4 4.9 4.9 0 0 1-1.2 3.2 2.9 2.9 0 0 1-1.2.9h2l1.6-.4a9.4 9.4 0 0 1-1.2 2 9.2 9.2 0 0 1-2.8 1.9z"/></symbol></svg>