<?xml version="1.0" encoding="utf-8"?>
<!-- Generator: Adobe Illustrator 23.0.1, SVG Export Plug-In . SVG Version: 6.00 Build 0)  -->
<svg version="1.1" id="Layer_1" xmlns="http://www.w3.org/2000/svg" xmlns:xlink="http://www.w3.org/1999/xlink" x="0px" y="0px"
	 viewBox="0 0 16 16" style="enable-background:new 0 0 16 16;" xml:space="preserve">
<style type="text/css">
	.st0{fill:#AA8BC1;}
	.st1{fill:#725E83;}
	.st2{fill:#8A729E;}
	.st3{fill:#F5F7F6;}
	.st4{fill:#F0C1DA;}
	.st5{fill:#966083;}
	.st6{fill:#CCA2BB;}
</style>
<g>
	<g>
		<g>
			<g>
				
					<ellipse transform="matrix(0.9984 -5.670177e-02 5.670177e-02 0.9984 -0.3698 0.6309)" class="st0" cx="10.9" cy="6.8" rx="4.7" ry="2"/>
			</g>
			<g>
				<path class="st1" d="M6.1,7.1c-0.1-1.2,2-2.3,4.7-2.5l0,0c2.7-0.2,4.9,0.7,5,1.9c0,0.6-0.5,1.2-1.4,1.7
					c-0.9,0.4-2.1,0.7-3.4,0.8c-0.2,0-0.4,0-0.6,0C8,9,6.1,8.2,6.1,7.1z M10.8,4.9C8.3,5.1,6.3,6.1,6.4,7.1c0.1,1,2.2,1.8,4.7,1.6
					c1.2-0.1,2.4-0.3,3.2-0.8c0.8-0.4,1.2-0.9,1.2-1.4c-0.1-0.9-1.9-1.6-4.1-1.6C11.2,4.9,11,4.9,10.8,4.9z"/>
			</g>
		</g>
		<g>
			<g>
				<path class="st0" d="M15.7,9.6c0.1,1.1-2,2.2-4.5,2.3s-4.7-0.6-4.8-1.7c1.3,0.4,3.6,0.8,6.2,0.3C13.9,10.3,14.9,10,15.7,9.6z"/>
			</g>
			<g>
				<path class="st1" d="M7.8,11.7c-1-0.3-1.5-0.9-1.5-1.5l0-0.2L6.5,10c2,0.6,4.1,0.7,6.1,0.3c1-0.2,2.1-0.5,3.1-0.9l0.2-0.1l0,0.2
					c0,0.6-0.4,1.2-1.4,1.7c-0.9,0.4-2,0.7-3.3,0.8c-0.2,0-0.5,0-0.7,0C9.5,12.1,8.6,11.9,7.8,11.7z M12.7,10.7c-2,0.3-4,0.3-6-0.3
					c0.1,0.4,0.6,0.8,1.3,1c0.9,0.3,2,0.5,3.3,0.4c1.2-0.1,2.4-0.4,3.2-0.8c0.7-0.3,1.1-0.8,1.2-1.2C14.6,10.2,13.7,10.5,12.7,10.7z
					"/>
			</g>
		</g>
		<g>
			<g>
				<path class="st2" d="M15.7,6.6c0.1,1.1-2,2.1-4.6,2.3C8.4,9,6.3,8.2,6.2,7.1l0.2,1.6C6.6,9,6.8,9.1,7,9.2c0.3,0.1,0.4,0,0.8,0.1
					c0.3,0.1,0.3,0.1,0.7,0.2c0.3,0.1,0.4,0,0.8,0.1C9.7,9.6,9.7,9.6,10,9.6c0.4,0,0.5-0.1,1-0.1c0.5,0,0.5,0.1,0.9,0
					c0.5-0.1,0.5-0.2,1-0.3c0.5-0.1,0.5,0,0.8-0.1c0.4-0.1,0.5-0.3,0.8-0.3c0.2,0,0.3,0,0.5-0.1c0.1-0.1,0.1-0.1,0.3-0.2
					c0.1-0.1,0.3-0.1,0.4-0.2C15.7,7.8,15.7,7.2,15.7,6.6z"/>
			</g>
			<g>
				<path class="st1" d="M10,9.8c-0.2,0-0.3,0-0.4-0.1c-0.1,0-0.2-0.1-0.4-0.1c-0.2,0-0.3,0-0.4,0c-0.1,0-0.2,0-0.4,0
					c-0.2,0-0.3-0.1-0.4-0.1C8,9.4,7.9,9.4,7.8,9.4c-0.2,0-0.3,0-0.4,0c-0.1,0-0.2,0-0.4-0.1C6.7,9.2,6.5,9,6.3,8.8l0,0L6.1,7.3
					c0,0,0-0.1,0-0.1l0.3,0l0,0.1c0.2,1,2.3,1.6,4.7,1.5c1.2-0.1,2.4-0.3,3.2-0.8c0.8-0.4,1.2-0.9,1.2-1.4l0,0l0.3,0c0,0,0,0,0,0
					l0.1,2l-0.1,0c-0.1,0-0.2,0.1-0.3,0.1c0,0-0.1,0.1-0.1,0.1c0,0-0.1,0.1-0.2,0.1C15,9,14.9,9,14.8,9c0,0-0.1,0-0.1,0
					c-0.2,0-0.2,0.1-0.4,0.1c-0.1,0.1-0.2,0.1-0.4,0.2c-0.2,0.1-0.3,0.1-0.4,0c-0.1,0-0.2,0-0.4,0c-0.3,0-0.4,0.1-0.5,0.1
					c-0.1,0.1-0.3,0.1-0.5,0.1c-0.2,0-0.3,0-0.5,0c-0.1,0-0.2,0-0.5,0c-0.2,0-0.4,0-0.5,0.1c-0.1,0-0.2,0.1-0.4,0.1
					C10.1,9.8,10,9.8,10,9.8z M11.5,9.4c0.1,0,0.2,0,0.4,0c0.2,0,0.3-0.1,0.5-0.1c0.1-0.1,0.3-0.1,0.6-0.2c0.2,0,0.4,0,0.5,0
					c0.1,0,0.2,0,0.3,0C13.9,9,14,9,14.1,8.9c0.1-0.1,0.3-0.2,0.5-0.2c0.1,0,0.1,0,0.2,0c0.1,0,0.2,0,0.2,0c0,0,0.1,0,0.1-0.1
					c0,0,0.1-0.1,0.1-0.1c0.1-0.1,0.2-0.1,0.3-0.2l0-1c-0.2,0.3-0.6,0.6-1.1,0.9c-0.9,0.4-2.1,0.7-3.4,0.8C9,9.1,7.2,8.7,6.5,7.9
					l0.1,0.7C6.7,8.8,6.8,9,7,9c0.1,0,0.2,0,0.3,0c0.1,0,0.3,0,0.5,0c0.2,0,0.3,0.1,0.3,0.1c0.1,0,0.2,0.1,0.3,0.1
					c0.2,0,0.2,0,0.3,0c0.1,0,0.2,0,0.4,0c0.2,0,0.4,0.1,0.5,0.1c0.1,0,0.2,0,0.3,0.1c0.2,0,0.3,0,0.4,0c0.1,0,0.3-0.1,0.5-0.1
					c0.1,0,0.1,0,0.2,0C11.3,9.4,11.4,9.4,11.5,9.4z"/>
			</g>
		</g>
		<g>
			<g>
				<path class="st2" d="M15.7,9.6c-0.8,0.4-1.9,0.7-3.1,0.9c-2.6,0.5-4.9,0-6.2-0.3c0-0.2,0-0.5,0-0.7c0.1,0,0.1,0.1,0.3,0.1
					c0.2,0.1,0.3,0,0.6,0c0.3,0,0.3,0.2,0.6,0.3c0.2,0,0.2,0,0.5,0C8.7,9.9,8.7,10,9,10c0.4,0.1,0.5,0,1,0c0.5,0,0.5,0.1,0.9,0.1
					c0.5,0,1-0.1,1.6-0.2c0.3-0.1,0.4-0.1,0.8-0.2c0.3,0,0.4,0,0.5-0.1c0.3-0.1,0.3-0.1,0.6-0.2c0.3-0.1,0.4-0.1,0.7-0.1
					c0.2,0,0.4-0.2,0.7-0.4C15.7,9.2,15.7,9.4,15.7,9.6z"/>
			</g>
			<g>
				<path class="st1" d="M6.4,10.3l-0.1,0l0-1.2l0.2,0.2c0.1,0.1,0.1,0.1,0.2,0.1c0.1,0,0.2,0,0.3,0c0.1,0,0.2,0,0.3,0
					c0.2,0,0.3,0.1,0.3,0.1c0.1,0,0.1,0.1,0.3,0.1c0.1,0,0.1,0,0.2,0c0.1,0,0.2,0,0.3,0c0.2,0,0.3,0.1,0.4,0.1c0.1,0,0.1,0,0.2,0.1
					c0.2,0,0.3,0,0.5,0c0.1,0,0.2,0,0.4,0c0.3,0,0.4,0,0.5,0.1c0.1,0,0.2,0.1,0.4,0.1c0.5,0,1-0.1,1.6-0.2c0.1,0,0.2,0,0.2-0.1
					c0.2,0,0.3-0.1,0.5-0.1c0.1,0,0.1,0,0.2,0c0.1,0,0.2,0,0.3-0.1c0.1,0,0.2-0.1,0.3-0.1c0.1,0,0.1-0.1,0.3-0.1
					c0.2-0.1,0.3-0.1,0.4-0.1c0.1,0,0.2,0,0.3,0c0.2-0.1,0.4-0.2,0.6-0.4l0.2-0.2l0.1,1.1l-0.1,0c-1,0.4-2.1,0.7-3.1,0.9
					c-0.8,0.1-1.6,0.2-2.4,0.2C9,10.9,7.7,10.7,6.4,10.3z M15.6,9.2c-0.2,0.1-0.3,0.2-0.5,0.3c-0.1,0-0.2,0-0.3,0.1
					c-0.1,0-0.2,0-0.4,0.1c-0.1,0-0.2,0.1-0.2,0.1c-0.1,0-0.2,0.1-0.3,0.1c-0.1,0-0.2,0.1-0.4,0.1c-0.1,0-0.1,0-0.2,0
					C13,10,12.9,10,12.7,10c-0.1,0-0.2,0-0.3,0.1c-0.6,0.1-1.1,0.2-1.6,0.2c-0.2,0-0.4,0-0.5-0.1c-0.1,0-0.2-0.1-0.5-0.1
					c-0.2,0-0.3,0-0.4,0c-0.2,0-0.3,0-0.6,0c-0.1,0-0.2,0-0.2-0.1c-0.1,0-0.2-0.1-0.3-0.1c-0.1,0-0.2,0-0.3,0C8,10,8,10,7.8,10
					c-0.2,0-0.3-0.1-0.4-0.2c-0.1,0-0.1-0.1-0.2-0.1c-0.1,0-0.2,0-0.2,0c-0.1,0-0.2,0-0.4,0c0,0,0,0-0.1,0l0,0.4c2,0.5,4,0.6,6,0.3
					c1-0.2,2-0.5,3-0.9L15.6,9.2z"/>
			</g>
		</g>
		<g>
			<g>
				<path class="st3" d="M6.4,9.4c0.1,0,0.1,0.1,0.3,0.1c0.2,0.1,0.3,0,0.6,0c0.3,0,0.3,0.2,0.6,0.3c0.2,0,0.2,0,0.5,0
					C8.7,9.9,8.7,10,9,10c0.4,0.1,0.5,0,1,0c0.5,0,0.5,0.1,0.9,0.1c0.5,0,1-0.1,1.6-0.2c0.3-0.1,0.4-0.1,0.8-0.2
					c0.3,0,0.4,0,0.5-0.1c0.3-0.1,0.3-0.1,0.6-0.2c0.3-0.1,0.4-0.1,0.7-0.1c0.2,0,0.4-0.2,0.7-0.4l0-0.5c-0.1,0-0.2,0.1-0.4,0.2
					c-0.1,0.1-0.1,0.2-0.3,0.2c-0.2,0.1-0.3,0-0.5,0.1c-0.4,0-0.4,0.2-0.8,0.3c-0.3,0.1-0.3,0-0.8,0.1c-0.6,0.1-0.6,0.2-1,0.3
					c-0.4,0-0.4-0.1-0.9,0c-0.5,0-0.6,0.1-1,0.1c-0.3,0-0.3-0.1-0.8-0.2c-0.4-0.1-0.4,0-0.8-0.1C8.1,9.4,8.1,9.3,7.8,9.2
					C7.3,9.2,7.2,9.3,7,9.2C6.8,9.1,6.6,9,6.4,8.7L6.4,9.4z"/>
			</g>
			<g>
				<path class="st1" d="M10.9,10.3c-0.2,0-0.4,0-0.5-0.1c-0.1,0-0.2-0.1-0.5-0.1c-0.2,0-0.3,0-0.4,0c-0.2,0-0.3,0-0.6,0
					c-0.1,0-0.2,0-0.2-0.1c-0.1,0-0.2-0.1-0.3-0.1c-0.1,0-0.2,0-0.3,0C8,10,8,10,7.8,10c-0.2,0-0.3-0.1-0.4-0.2
					c-0.1,0-0.1-0.1-0.2-0.1c-0.1,0-0.2,0-0.2,0c-0.1,0-0.2,0-0.4,0c-0.1,0-0.2-0.1-0.3-0.2l-0.1,0l0-1.2l0.3,0.4
					C6.7,8.8,6.8,8.9,7,9c0.1,0,0.2,0,0.3,0c0.1,0,0.3,0,0.5,0c0.2,0,0.3,0.1,0.3,0.1c0.1,0,0.2,0.1,0.3,0.1c0.2,0,0.2,0,0.3,0
					c0.1,0,0.2,0,0.4,0c0.2,0,0.4,0.1,0.5,0.1c0.1,0,0.2,0,0.3,0.1c0.2,0,0.3,0,0.4,0c0.1,0,0.3-0.1,0.5-0.1c0.3,0,0.4,0,0.5,0
					c0.1,0,0.2,0,0.4,0c0.2,0,0.3-0.1,0.5-0.1c0.1-0.1,0.3-0.1,0.6-0.2c0.2,0,0.4,0,0.5,0c0.1,0,0.2,0,0.3,0C13.9,9,14,9,14.1,8.9
					c0.1-0.1,0.3-0.2,0.5-0.2c0.1,0,0.1,0,0.2,0c0.1,0,0.2,0,0.2,0c0,0,0.1,0,0.1-0.1c0,0,0.1-0.1,0.1-0.1c0.1-0.1,0.3-0.2,0.5-0.2
					l0.2,0l0,0.8l0,0c-0.2,0.2-0.5,0.4-0.7,0.4c-0.1,0-0.2,0-0.3,0.1c-0.1,0-0.2,0-0.4,0.1c-0.1,0-0.2,0.1-0.2,0.1
					c-0.1,0-0.2,0.1-0.3,0.1c-0.1,0-0.2,0.1-0.4,0.1c-0.1,0-0.1,0-0.2,0C13,10,12.9,10,12.7,10c-0.1,0-0.2,0-0.3,0.1
					c-0.5,0.1-1,0.2-1.4,0.2C11,10.3,10.9,10.3,10.9,10.3z M15.6,8.6c-0.1,0-0.1,0.1-0.1,0.1c0,0-0.1,0.1-0.1,0.1
					c0,0-0.1,0.1-0.2,0.1C15,9,14.9,9,14.8,9c0,0-0.1,0-0.1,0c-0.2,0-0.2,0.1-0.4,0.1c-0.1,0.1-0.2,0.1-0.4,0.2
					c-0.2,0.1-0.3,0.1-0.4,0c-0.1,0-0.2,0-0.4,0c-0.3,0-0.4,0.1-0.5,0.1c-0.1,0.1-0.3,0.1-0.5,0.1c-0.2,0-0.3,0-0.5,0
					c-0.1,0-0.2,0-0.5,0c-0.2,0-0.4,0-0.5,0.1c-0.1,0-0.3,0.1-0.5,0c-0.2,0-0.3,0-0.4-0.1c-0.1,0-0.2-0.1-0.4-0.1
					c-0.2,0-0.3,0-0.4,0c-0.1,0-0.2,0-0.4,0c-0.2,0-0.3-0.1-0.4-0.1C8,9.4,7.9,9.4,7.8,9.4c-0.2,0-0.3,0-0.4,0c-0.1,0-0.2,0-0.4-0.1
					c-0.1,0-0.2-0.1-0.3-0.2l0,0.3c0,0,0.1,0.1,0.2,0.1c0.1,0,0.2,0,0.3,0c0.1,0,0.2,0,0.3,0c0.2,0,0.3,0.1,0.3,0.1
					c0.1,0,0.1,0.1,0.3,0.1c0.1,0,0.1,0,0.2,0c0.1,0,0.2,0,0.3,0c0.2,0,0.3,0.1,0.4,0.1c0.1,0,0.1,0,0.2,0.1c0.2,0,0.3,0,0.5,0
					c0.1,0,0.2,0,0.4,0c0.3,0,0.4,0,0.5,0.1c0.1,0,0.2,0.1,0.4,0.1c0.5,0,1-0.1,1.6-0.2c0.1,0,0.2,0,0.2-0.1c0.2,0,0.3-0.1,0.5-0.1
					c0.1,0,0.1,0,0.2,0c0.1,0,0.2,0,0.3-0.1c0.1,0,0.2-0.1,0.3-0.1c0.1,0,0.1-0.1,0.3-0.1c0.2-0.1,0.3-0.1,0.4-0.1
					c0.1,0,0.2,0,0.3,0c0.2-0.1,0.4-0.2,0.6-0.3L15.6,8.6z"/>
			</g>
		</g>
	</g>
	<g>
		<g>
			<g>
				<ellipse transform="matrix(0.7573 -0.653 0.653 0.7573 -3.0482 4.1436)" class="st4" cx="4.1" cy="6.2" rx="4.7" ry="2"/>
			</g>
			<g>
				<path class="st5" d="M0.4,9.4c-0.8-0.9,0.2-3,2.3-4.8l0,0C4.7,2.7,6.9,2.1,7.7,3c0.8,0.9-0.2,3-2.3,4.8c-1.4,1.2-3,1.9-4,1.9
					C1,9.8,0.6,9.6,0.4,9.4z M2.8,4.7L2.8,4.7C0.9,6.4-0.1,8.4,0.6,9.2c0.7,0.8,2.8,0.1,4.7-1.6C7.2,6,8.2,4,7.5,3.2
					C7.3,3,7,2.9,6.7,2.9C5.7,2.9,4.2,3.6,2.8,4.7z"/>
			</g>
		</g>
		<g>
			<g>
				<path class="st4" d="M9.5,5.4c0.7,0.8-0.2,2.9-2.2,4.6s-4.1,2.4-4.8,1.5C3.8,11,5.8,10,7.6,8C8.5,7.1,9.1,6.2,9.5,5.4z"/>
			</g>
			<g>
				<path class="st5" d="M2.4,11.7l-0.1-0.2l0.2-0.1c2-0.8,3.7-2,5.1-3.5c0.7-0.8,1.4-1.7,1.9-2.6l0.1-0.2l0.1,0.2
					c0.8,0.9-0.2,3-2.2,4.8c-1.4,1.2-2.9,1.9-4,1.9C3,12.1,2.7,11.9,2.4,11.7z M7.8,8.1c-1.4,1.5-3,2.7-5,3.5
					c0.8,0.5,2.8-0.2,4.5-1.7C9,8.4,10,6.6,9.6,5.7C9,6.6,8.4,7.4,7.8,8.1z"/>
			</g>
		</g>
		<g>
			<g>
				<path class="st6" d="M7.6,3.1C8.4,3.9,7.4,6,5.4,7.7s-4.2,2.4-4.9,1.6l1.2,1.2c0.3,0.1,0.6,0.1,0.7,0C2.6,10.3,2.6,10.2,3,10
					c0.3-0.2,0.3-0.1,0.6-0.3C4,9.6,4,9.5,4.3,9.3C4.7,9.1,4.8,9.1,5,9c0.3-0.2,0.3-0.4,0.7-0.7C6.1,7.9,6.2,8,6.5,7.7
					c0.3-0.3,0.3-0.5,0.7-0.9c0.3-0.3,0.4-0.3,0.6-0.5C8,6,7.9,5.8,8.2,5.6c0.1-0.1,0.3-0.2,0.3-0.3c0-0.1,0-0.2,0.1-0.3
					c0-0.2,0.1-0.3,0.2-0.4C8.4,4,8,3.6,7.6,3.1z"/>
			</g>
			<g>
				<path class="st5" d="M1.6,10.6L1.6,10.6L0.5,9.5c0,0-0.1-0.1-0.1-0.1l0.2-0.2l0.1,0.1c0.2,0.2,0.4,0.2,0.8,0.2
					c1,0,2.5-0.7,3.9-1.9C7.2,6,8.2,4,7.5,3.2l0,0L7.7,3c0,0,0,0,0,0L9,4.5L8.9,4.6C8.9,4.7,8.8,4.8,8.8,4.9c0,0.1,0,0.1,0,0.1
					c0,0.1,0,0.1,0,0.2C8.6,5.4,8.5,5.5,8.4,5.6c0,0-0.1,0.1-0.1,0.1C8.2,5.8,8.2,5.9,8.1,6c0,0.1-0.1,0.3-0.2,0.4
					C7.8,6.6,7.7,6.7,7.6,6.7C7.5,6.8,7.4,6.8,7.3,7C7.1,7.2,7,7.3,6.9,7.4C6.9,7.5,6.8,7.7,6.6,7.8C6.4,8,6.3,8.1,6.2,8.1
					C6.1,8.2,6,8.2,5.8,8.4C5.7,8.5,5.6,8.6,5.5,8.7C5.4,8.9,5.3,9,5.1,9.1C5,9.2,4.9,9.2,4.8,9.3c-0.1,0-0.2,0.1-0.4,0.2
					C4.2,9.5,4.1,9.6,4.1,9.7C4,9.7,3.9,9.8,3.7,9.9C3.6,10,3.5,10,3.4,10c-0.1,0-0.1,0-0.3,0.1c-0.2,0.1-0.3,0.2-0.4,0.2
					c-0.1,0.1-0.2,0.2-0.4,0.2c-0.1,0-0.2,0.1-0.4,0.1C1.9,10.6,1.7,10.6,1.6,10.6z M8,3.8c0,1.1-0.9,2.7-2.5,4.1
					c-1.4,1.2-3,1.9-4,1.9c-0.1,0-0.2,0-0.3,0l0.5,0.5c0.2,0.1,0.4,0.1,0.6,0c0.1,0,0.2-0.1,0.3-0.2C2.6,10.1,2.8,10,3,9.9
					c0.2-0.1,0.2-0.1,0.3-0.1c0.1,0,0.2-0.1,0.3-0.1c0.1-0.1,0.2-0.1,0.3-0.2C4,9.4,4.1,9.3,4.2,9.2C4.4,9.1,4.6,9,4.7,9
					c0.1,0,0.2-0.1,0.3-0.1c0.2-0.1,0.2-0.2,0.3-0.3c0.1-0.1,0.2-0.2,0.4-0.4C5.9,8,6,7.9,6.1,7.9c0.1-0.1,0.2-0.1,0.3-0.2
					c0.2-0.2,0.2-0.3,0.3-0.4C6.8,7.1,6.9,7,7.1,6.8c0.2-0.2,0.3-0.3,0.4-0.3c0.1-0.1,0.1-0.1,0.2-0.2C7.8,6.1,7.8,6,7.8,5.9
					c0.1-0.1,0.1-0.3,0.3-0.4c0,0,0.1-0.1,0.1-0.1c0.1-0.1,0.1-0.1,0.2-0.2c0,0,0-0.1,0-0.1c0-0.1,0-0.1,0-0.2
					c0-0.1,0.1-0.2,0.2-0.3L8,3.8z"/>
			</g>
		</g>
		<g>
			<g>
				<path class="st6" d="M9.5,5.4C9.1,6.2,8.5,7.1,7.6,8c-1.8,2-3.8,3-5.1,3.5c-0.2-0.2-0.3-0.4-0.5-0.6c0.1,0,0.2,0,0.3,0
					c0.2-0.1,0.3-0.2,0.5-0.3c0.3-0.1,0.3,0,0.6-0.2c0.2-0.1,0.2-0.1,0.4-0.3C4.1,10,4.2,10,4.4,9.9c0.3-0.2,0.4-0.3,0.8-0.6
					C5.6,9,5.6,9.1,6,8.9c0.4-0.3,0.7-0.7,1.1-1.1c0.2-0.2,0.3-0.3,0.5-0.6C7.9,6.9,7.9,6.9,8,6.7c0.2-0.2,0.1-0.3,0.3-0.5
					c0.2-0.3,0.3-0.3,0.5-0.5C8.9,5.5,9,5.3,9.1,4.9C9.3,5.1,9.4,5.3,9.5,5.4z"/>
			</g>
			<g>
				<path class="st5" d="M1.8,10.8l0.3,0c0.1,0,0.2,0,0.2,0c0.1,0,0.2-0.1,0.2-0.1c0.1-0.1,0.1-0.1,0.2-0.2c0.2-0.1,0.3-0.1,0.4-0.1
					c0.1,0,0.2,0,0.3-0.1c0.1,0,0.1-0.1,0.2-0.1c0.1,0,0.1-0.1,0.2-0.2C4,9.9,4.1,9.9,4.2,9.9c0.1,0,0.1,0,0.2-0.1
					c0.2-0.1,0.3-0.2,0.4-0.3C4.9,9.4,5,9.3,5.1,9.2C5.3,9,5.5,9,5.6,8.9c0.1,0,0.2-0.1,0.4-0.2c0.4-0.3,0.7-0.6,1.1-1.1
					c0.1-0.1,0.1-0.1,0.2-0.2C7.3,7.3,7.4,7.2,7.6,7C7.6,7,7.7,6.9,7.7,6.9c0.1-0.1,0.1-0.1,0.2-0.2C8,6.5,8,6.5,8.1,6.4
					c0-0.1,0.1-0.2,0.1-0.3c0.1-0.2,0.2-0.3,0.3-0.3c0.1-0.1,0.1-0.1,0.2-0.2C8.8,5.4,8.9,5.2,9,4.9L9,4.6l0.7,0.8L9.7,5.5
					c-0.5,1-1.2,1.8-1.9,2.6c-1.4,1.5-3.2,2.7-5.2,3.6l-0.1,0L1.8,10.8z M9.2,5.2C9.1,5.4,9,5.6,8.9,5.8C8.8,5.9,8.8,5.9,8.7,6
					C8.6,6.1,8.6,6.1,8.5,6.3C8.4,6.4,8.4,6.4,8.3,6.5c0,0.1-0.1,0.2-0.2,0.3C8.1,6.9,8,7,7.9,7.1c0,0-0.1,0.1-0.1,0.1
					C7.6,7.4,7.5,7.5,7.4,7.6c0,0.1-0.1,0.1-0.2,0.2C6.9,8.3,6.6,8.7,6.1,9C5.9,9.1,5.8,9.2,5.7,9.2c-0.1,0-0.2,0.1-0.4,0.2
					C5.2,9.5,5.1,9.6,5,9.7C4.9,9.8,4.7,9.9,4.5,10c-0.1,0-0.2,0.1-0.2,0.1c-0.1,0-0.2,0.1-0.3,0.1c-0.1,0.1-0.2,0.1-0.2,0.1
					c-0.1,0-0.1,0.1-0.2,0.2c-0.2,0.1-0.3,0.1-0.4,0.1c-0.1,0-0.1,0-0.2,0.1c-0.1,0-0.1,0.1-0.2,0.1c-0.1,0.1-0.2,0.2-0.3,0.2
					c0,0,0,0-0.1,0l0.2,0.3c1.9-0.8,3.6-2,5-3.4c0.7-0.8,1.3-1.6,1.8-2.5L9.2,5.2z"/>
			</g>
		</g>
		<g>
			<g>
				<path class="st3" d="M2.1,11c0.1,0,0.2,0,0.3,0c0.2-0.1,0.3-0.2,0.5-0.3c0.3-0.1,0.3,0,0.6-0.2c0.2-0.1,0.2-0.1,0.4-0.3
					C4.1,10,4.2,10,4.4,9.9c0.3-0.2,0.4-0.3,0.8-0.6C5.6,9,5.6,9.1,6,8.9c0.4-0.3,0.7-0.7,1.1-1.1c0.2-0.2,0.3-0.3,0.5-0.6
					C7.9,6.9,7.9,6.9,8,6.7c0.2-0.2,0.1-0.3,0.3-0.5c0.2-0.3,0.3-0.3,0.5-0.5C8.9,5.5,9,5.3,9.1,4.9L8.8,4.5
					C8.8,4.6,8.7,4.7,8.6,4.9c0,0.2,0,0.2-0.1,0.3C8.5,5.4,8.4,5.4,8.2,5.6C7.9,5.8,8,6,7.8,6.3C7.6,6.6,7.5,6.5,7.2,6.9
					C6.8,7.3,6.9,7.4,6.5,7.7C6.2,8,6.1,7.9,5.7,8.3C5.3,8.6,5.4,8.7,5,9C4.8,9.1,4.7,9.1,4.3,9.3C4,9.5,4,9.6,3.7,9.7
					C3.3,9.9,3.3,9.8,3,10c-0.4,0.2-0.4,0.3-0.7,0.4c-0.1,0-0.4,0.1-0.7,0L2.1,11z"/>
			</g>
			<g>
				<path class="st5" d="M2.1,11.1L2.1,11.1l-0.8-1l0.4,0.1c0.2,0.1,0.4,0.1,0.6,0c0.1,0,0.2-0.1,0.3-0.2C2.6,10.1,2.8,10,3,9.9
					c0.2-0.1,0.2-0.1,0.3-0.1c0.1,0,0.2-0.1,0.3-0.1c0.1-0.1,0.2-0.1,0.3-0.2C4,9.4,4.1,9.3,4.2,9.2C4.4,9.1,4.6,9,4.7,9
					c0.1,0,0.2-0.1,0.3-0.1c0.2-0.1,0.2-0.2,0.3-0.3c0.1-0.1,0.2-0.2,0.4-0.4C5.9,8,6,7.9,6.1,7.9c0.1-0.1,0.2-0.1,0.3-0.2
					c0.2-0.2,0.2-0.3,0.3-0.4C6.8,7.1,6.9,7,7.1,6.8c0.2-0.2,0.3-0.3,0.4-0.3c0.1-0.1,0.1-0.1,0.2-0.2C7.8,6.1,7.8,6,7.8,5.9
					c0.1-0.1,0.1-0.3,0.3-0.4c0,0,0.1-0.1,0.1-0.1c0.1-0.1,0.1-0.1,0.2-0.2c0,0,0-0.1,0-0.1c0-0.1,0-0.1,0-0.2
					c0-0.2,0.1-0.3,0.2-0.4l0.1-0.1l0.4,0.6l0,0.1C9.2,5.3,9.1,5.5,8.9,5.8C8.8,5.9,8.8,5.9,8.7,6C8.6,6.1,8.6,6.1,8.5,6.3
					C8.4,6.4,8.4,6.4,8.3,6.5c0,0.1-0.1,0.2-0.2,0.3C8.1,6.9,8,7,7.9,7.1c0,0-0.1,0.1-0.1,0.1C7.6,7.4,7.5,7.5,7.4,7.6
					c0,0.1-0.1,0.1-0.2,0.2C6.9,8.3,6.6,8.7,6.1,9C5.9,9.1,5.8,9.2,5.7,9.2c-0.1,0-0.2,0.1-0.4,0.2C5.2,9.5,5.1,9.6,5,9.7
					C4.9,9.8,4.7,9.9,4.5,10c-0.1,0-0.2,0.1-0.2,0.1c-0.1,0-0.2,0.1-0.3,0.1c-0.1,0.1-0.2,0.1-0.2,0.1c-0.1,0-0.1,0.1-0.2,0.2
					c-0.2,0.1-0.3,0.1-0.4,0.1c-0.1,0-0.1,0-0.2,0.1c-0.1,0-0.1,0.1-0.2,0.1c-0.1,0.1-0.2,0.2-0.3,0.2C2.3,11.1,2.2,11.1,2.1,11.1
					C2.1,11.1,2.1,11.1,2.1,11.1z M8.8,4.8c0,0,0,0.1-0.1,0.2c0,0.1,0,0.1,0,0.1c0,0.1,0,0.1,0,0.2C8.6,5.4,8.5,5.5,8.4,5.6
					c0,0-0.1,0.1-0.1,0.1C8.2,5.8,8.2,5.9,8.1,6c0,0.1-0.1,0.3-0.2,0.4C7.8,6.6,7.7,6.7,7.6,6.7C7.5,6.8,7.4,6.8,7.3,7
					C7.1,7.2,7,7.3,6.9,7.4C6.9,7.5,6.8,7.7,6.6,7.8C6.4,8,6.3,8.1,6.2,8.1C6.1,8.2,6,8.2,5.8,8.4C5.7,8.5,5.6,8.6,5.5,8.7
					C5.4,8.9,5.3,9,5.1,9.1C5,9.2,4.9,9.2,4.8,9.3c-0.1,0-0.2,0.1-0.4,0.2C4.2,9.5,4.1,9.6,4.1,9.7C4,9.7,3.9,9.8,3.7,9.9
					C3.6,10,3.5,10,3.4,10c-0.1,0-0.1,0-0.3,0.1c-0.2,0.1-0.3,0.2-0.4,0.2c-0.1,0.1-0.2,0.2-0.4,0.2c-0.1,0-0.3,0.1-0.4,0l0.2,0.2
					c0.1,0,0.1,0,0.2,0c0.1,0,0.2-0.1,0.2-0.1c0.1-0.1,0.1-0.1,0.2-0.2c0.2-0.1,0.3-0.1,0.4-0.1c0.1,0,0.2,0,0.3-0.1
					c0.1,0,0.1-0.1,0.2-0.1c0.1,0,0.1-0.1,0.2-0.2C4,9.9,4.1,9.9,4.2,9.9c0.1,0,0.1,0,0.2-0.1c0.2-0.1,0.3-0.2,0.4-0.3
					C4.9,9.4,5,9.3,5.1,9.2C5.3,9,5.5,9,5.6,8.9c0.1,0,0.2-0.1,0.4-0.2c0.4-0.3,0.7-0.6,1.1-1.1c0.1-0.1,0.1-0.1,0.2-0.2
					C7.3,7.3,7.4,7.2,7.6,7C7.6,7,7.7,6.9,7.7,6.9c0.1-0.1,0.1-0.1,0.2-0.2C8,6.5,8,6.5,8.1,6.4c0-0.1,0.1-0.2,0.1-0.3
					c0.1-0.2,0.2-0.3,0.3-0.3c0.1-0.1,0.1-0.1,0.2-0.2C8.8,5.4,8.9,5.2,9,5L8.8,4.8z"/>
			</g>
		</g>
	</g>
</g>
</svg>
