<?xml version="1.0" encoding="utf-8"?>
<!-- Generator: Adobe Illustrator 23.0.1, SVG Export Plug-In . SVG Version: 6.00 Build 0)  -->
<svg version="1.1" id="Layer_1" xmlns="http://www.w3.org/2000/svg" xmlns:xlink="http://www.w3.org/1999/xlink" x="0px" y="0px"
	 viewBox="0 0 32 32" style="enable-background:new 0 0 32 32;" xml:space="preserve">
<style type="text/css">
	.st0{fill:#AA8BC1;}
	.st1{fill:#725E83;}
	.st2{fill:#8A729E;}
	.st3{fill:#F5F7F6;}
	.st4{fill:#F0C1DA;}
	.st5{fill:#966083;}
	.st6{fill:#CCA2BB;}
</style>
<g>
	<g>
		<g>
			<g>
				
					<ellipse transform="matrix(0.9984 -5.670177e-02 5.670177e-02 0.9984 -0.7762 1.2599)" class="st0" cx="21.8" cy="14.3" rx="9.3" ry="4"/>
			</g>
			<g>
				<path class="st1" d="M12.2,14.9c-0.1-2.4,4-4.5,9.4-4.8l0,0c5.4-0.3,9.7,1.3,9.8,3.7c0.1,1.2-0.9,2.3-2.7,3.3
					c-1.8,0.9-4.1,1.4-6.6,1.6c-0.4,0-0.9,0-1.3,0C16,18.6,12.3,17.1,12.2,14.9z M21.6,10.6c-4.9,0.3-8.9,2.2-8.8,4.2
					c0.1,2,4.3,3.5,9.2,3.2c2.4-0.1,4.7-0.7,6.4-1.5c1.6-0.8,2.5-1.8,2.4-2.7c-0.1-1.8-3.7-3.2-8-3.2C22.4,10.6,22,10.6,21.6,10.6z"
					/>
			</g>
		</g>
		<g>
			<g>
				<path class="st0" d="M31.3,19.8c0.1,2.2-3.9,4.3-8.9,4.6c-5.1,0.3-9.3-1.2-9.4-3.4c2.7,0.7,7,1.5,12.2,0.6
					C27.6,21.1,29.7,20.5,31.3,19.8z"/>
			</g>
			<g>
				<path class="st1" d="M15.7,23.8c-1.9-0.7-3-1.7-3.1-2.9l0-0.4l0.4,0.1c4,1.1,8.1,1.3,12.1,0.6c2.1-0.4,4.1-1,6-1.8l0.4-0.2
					l0,0.4c0.1,1.2-0.9,2.4-2.7,3.3c-1.7,0.9-4,1.5-6.5,1.6c-0.5,0-0.9,0-1.4,0C19.1,24.7,17.2,24.4,15.7,23.8z M25.2,21.8
					c-3.9,0.7-7.9,0.5-11.9-0.5c0.3,0.8,1.2,1.5,2.6,2c1.7,0.6,4,0.9,6.4,0.7s4.6-0.7,6.3-1.5c1.3-0.7,2.1-1.5,2.3-2.3
					C29.1,21,27.2,21.5,25.2,21.8z"/>
			</g>
		</g>
		<g>
			<g>
				<path class="st2" d="M31.1,13.8c0.1,2.2-3.9,4.2-9.1,4.5c-5.1,0.3-9.4-1.3-9.5-3.5l0.4,3.2c0.4,0.5,0.8,0.8,1.1,0.9
					c0.5,0.2,0.7,0,1.6,0.2c0.6,0.1,0.6,0.2,1.3,0.3c0.6,0.1,0.7,0,1.5,0.1c0.9,0.1,1,0.3,1.6,0.3c0.8,0.1,0.9-0.2,1.9-0.2
					c1-0.1,1,0.2,1.9,0.1c0.9-0.1,1-0.4,2.1-0.6c0.9-0.1,1,0.1,1.6-0.1c0.8-0.3,0.9-0.6,1.6-0.7c0.4,0,0.6,0.1,0.9-0.1
					c0.2-0.1,0.3-0.3,0.5-0.5c0.3-0.2,0.6-0.3,0.8-0.3C31.2,16.2,31.2,15,31.1,13.8z"/>
			</g>
			<g>
				<path class="st1" d="M20,20.1c-0.3,0-0.5-0.1-0.7-0.1c-0.2,0-0.4-0.1-0.9-0.2c-0.4-0.1-0.6-0.1-0.8-0.1c-0.2,0-0.4,0-0.7-0.1
					c-0.4-0.1-0.6-0.1-0.7-0.2c-0.2-0.1-0.3-0.1-0.6-0.2c-0.4-0.1-0.6-0.1-0.9-0.1c-0.3,0-0.5,0-0.8-0.1c-0.5-0.2-0.9-0.5-1.2-1
					l0-0.1l-0.4-3c0-0.1,0-0.2,0-0.3l0.6-0.1l0,0.2c0.4,1.9,4.5,3.2,9.2,3c2.4-0.1,4.7-0.7,6.4-1.5c1.6-0.8,2.4-1.7,2.4-2.7l0,0
					l0.6,0c0,0,0,0,0,0.1l0.2,3.9l-0.2,0c-0.2,0-0.5,0.1-0.6,0.3c-0.1,0.1-0.2,0.1-0.2,0.2c-0.1,0.1-0.2,0.2-0.3,0.3
					c-0.3,0.2-0.6,0.2-0.8,0.2c-0.1,0-0.2,0-0.3,0c-0.3,0-0.5,0.1-0.7,0.3c-0.2,0.1-0.4,0.3-0.8,0.4c-0.4,0.1-0.6,0.1-0.8,0.1
					c-0.2,0-0.4,0-0.8,0c-0.5,0.1-0.8,0.2-1,0.3c-0.3,0.1-0.5,0.2-1,0.3c-0.5,0-0.7,0-0.9,0c-0.2,0-0.5-0.1-0.9-0.1
					c-0.5,0-0.7,0.1-1,0.1c-0.2,0.1-0.4,0.1-0.8,0.1C20.1,20.2,20.1,20.2,20,20.1z M23,19.4c0.2,0,0.4,0.1,0.8,0
					c0.4,0,0.6-0.1,0.9-0.2c0.3-0.1,0.6-0.2,1.2-0.3c0.5-0.1,0.7-0.1,0.9,0c0.2,0,0.3,0,0.6-0.1c0.3-0.1,0.5-0.2,0.7-0.3
					c0.3-0.2,0.5-0.3,1-0.4c0.1,0,0.2,0,0.3,0c0.2,0,0.3,0,0.5-0.1c0.1,0,0.1-0.1,0.2-0.2c0.1-0.1,0.2-0.2,0.3-0.3
					c0.2-0.1,0.4-0.3,0.6-0.3l-0.1-1.9c-0.5,0.6-1.2,1.2-2.2,1.7c-1.8,0.9-4.1,1.4-6.6,1.6c-4.1,0.2-7.6-0.7-9.1-2.1l0.2,1.5
					c0.3,0.3,0.6,0.6,0.9,0.7c0.2,0.1,0.4,0.1,0.6,0.1c0.2,0,0.5,0,1,0.1c0.3,0.1,0.5,0.1,0.7,0.2c0.2,0.1,0.3,0.1,0.6,0.2
					c0.3,0.1,0.5,0.1,0.7,0.1c0.2,0,0.4,0,0.8,0.1c0.5,0.1,0.7,0.1,0.9,0.2c0.2,0.1,0.3,0.1,0.6,0.1c0.4,0,0.6,0,0.9-0.1
					c0.2-0.1,0.5-0.1,1.1-0.2c0.1,0,0.2,0,0.3,0C22.6,19.3,22.8,19.4,23,19.4z"/>
			</g>
		</g>
		<g>
			<g>
				<path class="st2" d="M31.3,19.8c-1.6,0.7-3.7,1.4-6.1,1.8c-5.2,0.9-9.6,0.1-12.2-0.6c0-0.5,0-1,0-1.5c0.1,0.1,0.3,0.2,0.5,0.3
					c0.5,0.2,0.7,0,1.2,0c0.6,0.1,0.5,0.4,1.2,0.5c0.4,0.1,0.5,0,1,0.1c0.5,0.1,0.7,0.2,1.1,0.3c0.7,0.2,1,0,1.9,0
					c1,0,0.9,0.2,1.9,0.3c1.1,0.1,2-0.1,3.1-0.4c0.6-0.1,0.8-0.2,1.5-0.3c0.5-0.1,0.7-0.1,1.1-0.2c0.5-0.2,0.6-0.3,1.1-0.5
					c0.6-0.2,0.8-0.1,1.4-0.3c0.3-0.1,0.8-0.3,1.4-0.8C31.2,18.9,31.3,19.3,31.3,19.8z"/>
			</g>
			<g>
				<path class="st1" d="M12.9,21.2l-0.2-0.1l-0.1-2.3l0.5,0.4c0.1,0.1,0.3,0.2,0.4,0.2c0.2,0.1,0.3,0.1,0.5,0c0.2,0,0.3,0,0.6,0
					c0.3,0.1,0.5,0.2,0.7,0.3c0.1,0.1,0.3,0.2,0.5,0.2c0.2,0,0.3,0,0.4,0c0.1,0,0.3,0,0.6,0c0.4,0,0.6,0.1,0.8,0.2
					c0.1,0,0.2,0.1,0.4,0.1c0.4,0.1,0.6,0.1,1,0c0.2,0,0.5,0,0.8,0c0.5,0,0.8,0.1,1,0.1c0.2,0.1,0.4,0.1,0.8,0.1
					c1,0.1,1.9-0.1,3.1-0.4c0.2,0,0.3-0.1,0.5-0.1c0.3-0.1,0.6-0.1,1-0.2c0.2,0,0.3,0,0.4-0.1c0.2,0,0.4-0.1,0.6-0.1
					c0.3-0.1,0.4-0.1,0.5-0.2c0.1-0.1,0.3-0.2,0.6-0.2c0.4-0.1,0.6-0.2,0.8-0.2c0.2,0,0.3,0,0.5-0.1c0.4-0.1,0.9-0.4,1.2-0.7
					l0.4-0.4l0.1,2.1L31.4,20c-2,0.8-4.1,1.5-6.2,1.8c-1.6,0.3-3.1,0.4-4.7,0.4C18,22.3,15.4,21.9,12.9,21.2z M31,19
					c-0.3,0.2-0.7,0.4-1,0.5c-0.3,0.1-0.5,0.1-0.6,0.1c-0.2,0-0.4,0-0.7,0.1c-0.2,0.1-0.3,0.1-0.5,0.2c-0.2,0.1-0.3,0.2-0.6,0.3
					c-0.3,0.1-0.5,0.1-0.7,0.1c-0.1,0-0.2,0-0.4,0.1c-0.4,0.1-0.7,0.1-1,0.2c-0.1,0-0.3,0.1-0.5,0.1c-1.2,0.3-2.1,0.5-3.2,0.4
					c-0.5,0-0.7-0.1-1-0.1c-0.2-0.1-0.4-0.1-0.9-0.1c-0.3,0-0.6,0-0.8,0c-0.4,0-0.7,0.1-1.2,0c-0.2,0-0.3-0.1-0.4-0.1
					c-0.2-0.1-0.4-0.1-0.7-0.2c-0.2,0-0.4,0-0.5,0c-0.2,0-0.3,0-0.5,0c-0.4-0.1-0.6-0.2-0.7-0.3c-0.1-0.1-0.2-0.1-0.4-0.2
					c-0.2,0-0.3,0-0.4,0c-0.2,0-0.4,0-0.8-0.1c0,0-0.1,0-0.1,0l0,0.7c4,1.1,8,1.3,11.9,0.6c2-0.3,4-0.9,5.9-1.7L31,19z"/>
			</g>
		</g>
		<g>
			<g>
				<path class="st3" d="M12.9,19.4c0.1,0.1,0.3,0.2,0.5,0.3c0.5,0.2,0.7,0,1.2,0c0.6,0.1,0.5,0.4,1.2,0.5c0.4,0.1,0.5,0,1,0.1
					c0.5,0.1,0.7,0.2,1.1,0.3c0.7,0.2,1,0,1.9,0c1,0,0.9,0.2,1.9,0.3c1.1,0.1,2-0.1,3.1-0.4c0.6-0.1,0.8-0.2,1.5-0.3
					c0.5-0.1,0.7-0.1,1.1-0.2c0.5-0.2,0.6-0.3,1.1-0.5c0.6-0.2,0.8-0.1,1.4-0.3c0.3-0.1,0.8-0.3,1.4-0.8l0.1-1
					c-0.2,0-0.5,0.1-0.8,0.3c-0.3,0.2-0.3,0.3-0.5,0.5c-0.3,0.2-0.6,0.1-0.9,0.1c-0.7,0-0.8,0.4-1.6,0.7c-0.6,0.2-0.7,0-1.6,0.1
					c-1.1,0.2-1.1,0.5-2.1,0.6c-0.8,0.1-0.8-0.1-1.9-0.1c-1,0.1-1.1,0.3-1.9,0.2c-0.6,0-0.6-0.2-1.6-0.3c-0.8-0.1-0.9,0-1.5-0.1
					c-0.7-0.1-0.7-0.2-1.3-0.3c-0.9-0.2-1.1,0-1.6-0.2c-0.3-0.1-0.7-0.3-1.1-0.9L12.9,19.4z"/>
			</g>
			<g>
				<path class="st1" d="M21.7,21.2c-0.5,0-0.7-0.1-1-0.1c-0.2-0.1-0.4-0.1-0.9-0.1c-0.3,0-0.6,0-0.8,0c-0.4,0-0.7,0.1-1.2,0
					c-0.2,0-0.3-0.1-0.4-0.1c-0.2-0.1-0.4-0.1-0.7-0.2c-0.2,0-0.4,0-0.5,0c-0.2,0-0.3,0-0.5,0c-0.4-0.1-0.6-0.2-0.7-0.3
					c-0.1-0.1-0.2-0.1-0.4-0.2c-0.2,0-0.3,0-0.4,0c-0.2,0-0.4,0-0.8-0.1c-0.2-0.1-0.4-0.2-0.6-0.3l-0.1-0.1l0-2.4l0.5,0.7
					c0.3,0.4,0.6,0.6,0.9,0.8c0.2,0.1,0.4,0.1,0.6,0.1c0.2,0,0.5,0,1,0.1c0.3,0.1,0.5,0.1,0.7,0.2c0.2,0.1,0.3,0.1,0.6,0.2
					c0.3,0.1,0.5,0.1,0.7,0.1c0.2,0,0.4,0,0.8,0.1c0.5,0.1,0.7,0.1,0.9,0.2c0.2,0.1,0.3,0.1,0.6,0.1c0.4,0,0.6,0,0.9-0.1
					c0.2-0.1,0.5-0.1,1.1-0.2c0.6,0,0.8,0,1.1,0.1c0.2,0,0.4,0.1,0.8,0c0.4,0,0.6-0.1,0.9-0.2c0.3-0.1,0.6-0.2,1.2-0.3
					c0.5-0.1,0.7-0.1,0.9,0c0.2,0,0.3,0,0.6-0.1c0.3-0.1,0.5-0.2,0.7-0.3c0.3-0.2,0.5-0.3,1-0.4c0.1,0,0.2,0,0.3,0
					c0.2,0,0.3,0,0.5-0.1c0.1,0,0.1-0.1,0.2-0.2c0.1-0.1,0.2-0.2,0.3-0.3c0.3-0.2,0.6-0.3,0.9-0.4l0.4-0.1l-0.1,1.5l-0.1,0.1
					c-0.5,0.4-1,0.7-1.5,0.8c-0.3,0.1-0.5,0.1-0.6,0.1c-0.2,0-0.4,0-0.7,0.1c-0.2,0.1-0.3,0.1-0.5,0.2c-0.2,0.1-0.3,0.2-0.6,0.3
					c-0.3,0.1-0.5,0.1-0.7,0.1c-0.1,0-0.2,0-0.4,0.1c-0.4,0.1-0.7,0.1-1,0.2c-0.1,0-0.3,0.1-0.5,0.1c-1,0.2-1.9,0.4-2.8,0.4
					C21.9,21.2,21.8,21.2,21.7,21.2z M31,17.8c-0.1,0-0.2,0.1-0.3,0.2c-0.1,0.1-0.2,0.1-0.2,0.2c-0.1,0.1-0.2,0.2-0.3,0.3
					c-0.3,0.2-0.6,0.2-0.8,0.2c-0.1,0-0.2,0-0.3,0c-0.3,0-0.5,0.1-0.7,0.3c-0.2,0.1-0.4,0.3-0.8,0.4c-0.4,0.1-0.6,0.1-0.8,0.1
					c-0.2,0-0.4,0-0.8,0c-0.5,0.1-0.8,0.2-1,0.3c-0.3,0.1-0.5,0.2-1,0.3c-0.5,0-0.7,0-0.9,0c-0.2,0-0.5-0.1-0.9-0.1
					c-0.5,0-0.7,0.1-1,0.1c-0.3,0.1-0.5,0.1-1,0.1c-0.3,0-0.5-0.1-0.7-0.1c-0.2,0-0.4-0.1-0.9-0.2c-0.4-0.1-0.6-0.1-0.8-0.1
					c-0.2,0-0.4,0-0.7-0.1c-0.4-0.1-0.6-0.1-0.7-0.2c-0.2-0.1-0.3-0.1-0.6-0.2c-0.4-0.1-0.6-0.1-0.9-0.1c-0.3,0-0.5,0-0.8-0.1
					c-0.2-0.1-0.5-0.2-0.7-0.4l0,0.5c0.1,0.1,0.2,0.1,0.3,0.2c0.2,0.1,0.3,0.1,0.5,0c0.2,0,0.3,0,0.6,0c0.3,0.1,0.5,0.2,0.7,0.3
					c0.1,0.1,0.3,0.2,0.5,0.2c0.2,0,0.3,0,0.4,0c0.1,0,0.3,0,0.6,0c0.4,0,0.6,0.1,0.8,0.2c0.1,0,0.2,0.1,0.4,0.1
					c0.4,0.1,0.6,0.1,1,0c0.2,0,0.5,0,0.8,0c0.5,0,0.8,0.1,1,0.1c0.2,0.1,0.4,0.1,0.8,0.1c1,0.1,1.9-0.1,3.1-0.4
					c0.2,0,0.3-0.1,0.5-0.1c0.3-0.1,0.6-0.1,1-0.2c0.2,0,0.3,0,0.4-0.1c0.2,0,0.4-0.1,0.6-0.1c0.3-0.1,0.4-0.1,0.5-0.2
					c0.1-0.1,0.3-0.2,0.6-0.2c0.4-0.1,0.6-0.2,0.8-0.2c0.2,0,0.3,0,0.5-0.1c0.4-0.1,0.8-0.3,1.2-0.6L31,17.8z"/>
			</g>
		</g>
	</g>
	<g>
		<g>
			<g>
				<ellipse transform="matrix(0.7573 -0.653 0.653 0.7573 -6.4949 8.5425)" class="st4" cx="8.2" cy="13" rx="9.3" ry="4"/>
			</g>
			<g>
				<path class="st5" d="M1,19.3c-1.6-1.8,0.4-6,4.5-9.5l0,0c4.1-3.5,8.5-4.9,10.1-3c1.6,1.8-0.4,6-4.5,9.5c-2.8,2.5-5.9,3.8-8,3.8
					C2.2,20.1,1.4,19.8,1,19.3z M5.8,10.2L5.8,10.2c-3.7,3.2-5.7,7.2-4.4,8.7c1.3,1.5,5.6,0.1,9.3-3.1c3.7-3.2,5.7-7.2,4.4-8.7
					c-0.4-0.4-0.9-0.6-1.7-0.6C11.5,6.5,8.5,7.9,5.8,10.2z"/>
			</g>
		</g>
		<g>
			<g>
				<path class="st4" d="M19.1,11.6c1.5,1.7-0.5,5.7-4.3,9.1s-8.1,4.7-9.6,3c2.6-1,6.5-3.1,10.1-6.9C17,14.9,18.2,13.1,19.1,11.6z"
					/>
			</g>
			<g>
				<path class="st5" d="M5,23.8l-0.3-0.3l0.4-0.2c3.9-1.6,7.2-3.9,10-6.9c1.4-1.5,2.7-3.3,3.7-5.1l0.2-0.4l0.3,0.3
					c1.6,1.8-0.3,6-4.3,9.5c-2.8,2.4-5.8,3.8-7.8,3.8C6.3,24.6,5.5,24.4,5,23.8z M15.6,16.9c-2.7,2.9-6,5.2-9.8,6.8
					c1.6,1,5.5-0.4,8.8-3.3c3.4-2.9,5.3-6.6,4.5-8.3C18.1,13.8,16.9,15.4,15.6,16.9z"/>
			</g>
		</g>
		<g>
			<g>
				<path class="st6" d="M15.3,6.9c1.4,1.7-0.5,5.8-4.4,9.1s-8.2,4.7-9.7,3.1l2.3,2.3c0.6,0.2,1.1,0.1,1.4,0
					c0.5-0.2,0.6-0.4,1.4-0.8c0.6-0.3,0.6-0.2,1.2-0.5c0.6-0.3,0.6-0.4,1.3-0.8c0.8-0.5,1-0.4,1.4-0.7c0.7-0.5,0.6-0.7,1.4-1.4
					c0.8-0.7,0.9-0.5,1.5-1.1c0.7-0.7,0.5-0.9,1.3-1.7c0.7-0.7,0.8-0.5,1.2-1.1c0.5-0.7,0.3-1.1,0.9-1.5c0.3-0.2,0.5-0.3,0.7-0.7
					c0.1-0.2,0-0.4,0.1-0.7c0.1-0.3,0.3-0.6,0.4-0.7C16.9,8.8,16.1,7.9,15.3,6.9z"/>
			</g>
			<g>
				<path class="st5" d="M3.4,21.7L3.4,21.7l-2.2-2.2C1.1,19.4,1,19.4,1,19.3l0.4-0.4l0.2,0.2c0.4,0.3,0.9,0.5,1.5,0.5
					c1.9,0,4.9-1.4,7.6-3.7c3.7-3.2,5.7-7.1,4.4-8.7l0,0l0.4-0.4c0,0,0,0,0,0l2.5,3l-0.2,0.2c-0.2,0.2-0.3,0.4-0.3,0.6
					c0,0.1,0,0.2,0,0.3c0,0.1,0,0.2-0.1,0.4c-0.1,0.3-0.3,0.5-0.5,0.6c-0.1,0.1-0.1,0.1-0.2,0.2c-0.2,0.2-0.3,0.4-0.4,0.6
					c-0.1,0.2-0.2,0.5-0.4,0.8c-0.2,0.3-0.4,0.4-0.6,0.6c-0.2,0.1-0.3,0.2-0.6,0.5c-0.4,0.4-0.5,0.6-0.6,0.8
					c-0.1,0.2-0.3,0.5-0.7,0.9c-0.3,0.3-0.5,0.4-0.8,0.5c-0.2,0.1-0.4,0.2-0.8,0.5c-0.4,0.3-0.5,0.5-0.7,0.7
					c-0.2,0.2-0.4,0.4-0.8,0.7c-0.3,0.2-0.4,0.3-0.6,0.3c-0.2,0.1-0.4,0.2-0.8,0.4c-0.3,0.2-0.5,0.3-0.6,0.4
					c-0.2,0.1-0.3,0.2-0.6,0.4c-0.3,0.2-0.5,0.2-0.7,0.3c-0.2,0.1-0.3,0.1-0.5,0.2C6,21,5.8,21.1,5.6,21.3c-0.2,0.2-0.4,0.3-0.7,0.4
					c-0.2,0.1-0.5,0.1-0.7,0.1C4,21.8,3.7,21.7,3.4,21.7z M16.1,8.3c0.1,2.1-1.8,5.3-5,8c-2.8,2.5-5.9,3.8-8,3.8c-0.2,0-0.4,0-0.5,0
					l1,1c0.4,0.1,0.8,0.1,1.1,0C5,21.1,5.1,21,5.3,20.8c0.2-0.1,0.4-0.3,0.8-0.5c0.3-0.2,0.5-0.2,0.6-0.3C6.9,20,7,19.9,7.3,19.8
					c0.3-0.1,0.4-0.2,0.6-0.3c0.2-0.1,0.4-0.2,0.7-0.4c0.4-0.2,0.7-0.3,0.8-0.4c0.2-0.1,0.3-0.1,0.6-0.3c0.3-0.2,0.5-0.4,0.6-0.6
					c0.2-0.2,0.4-0.4,0.7-0.8c0.4-0.4,0.7-0.5,0.9-0.6c0.2-0.1,0.4-0.2,0.6-0.4c0.3-0.3,0.4-0.5,0.6-0.7c0.1-0.3,0.3-0.5,0.7-1
					c0.3-0.4,0.6-0.5,0.7-0.6c0.2-0.1,0.3-0.2,0.4-0.4c0.2-0.3,0.3-0.5,0.4-0.7c0.1-0.3,0.2-0.6,0.6-0.9c0.1-0.1,0.2-0.1,0.3-0.2
					c0.2-0.1,0.3-0.2,0.3-0.4c0-0.1,0-0.2,0-0.3c0-0.1,0-0.2,0.1-0.4c0.1-0.2,0.2-0.4,0.3-0.6L16.1,8.3z"/>
			</g>
		</g>
		<g>
			<g>
				<path class="st6" d="M19.1,11.6c-0.9,1.6-2.1,3.4-3.7,5.2c-3.6,3.9-7.5,5.9-10.1,6.9c-0.3-0.4-0.6-0.8-0.9-1.1
					c0.1,0,0.3,0,0.6-0.1c0.5-0.2,0.5-0.4,1-0.7c0.5-0.3,0.6,0,1.2-0.3c0.4-0.2,0.4-0.3,0.8-0.6c0.5-0.3,0.7-0.3,1.1-0.5
					c0.7-0.3,0.8-0.6,1.5-1.2c0.8-0.6,0.8-0.4,1.6-0.9c0.9-0.6,1.5-1.3,2.2-2.2c0.4-0.5,0.5-0.7,1-1.2c0.4-0.4,0.5-0.5,0.7-0.8
					c0.3-0.5,0.3-0.6,0.6-1c0.4-0.6,0.6-0.6,0.9-1c0.2-0.3,0.5-0.7,0.6-1.5C18.5,10.9,18.8,11.2,19.1,11.6z"/>
			</g>
			<g>
				<path class="st5" d="M3.7,22.2l0.6,0c0.2,0,0.3,0,0.5-0.1C5,22.1,5.1,22,5.2,21.8c0.1-0.1,0.3-0.2,0.5-0.4
					c0.3-0.2,0.5-0.2,0.7-0.2c0.2,0,0.3,0,0.6-0.1c0.2-0.1,0.2-0.1,0.3-0.2c0.1-0.1,0.2-0.2,0.5-0.3c0.3-0.2,0.5-0.3,0.7-0.3
					c0.1,0,0.2-0.1,0.4-0.1c0.4-0.2,0.5-0.3,0.8-0.6c0.2-0.2,0.4-0.3,0.6-0.6c0.4-0.3,0.7-0.4,0.9-0.5c0.2-0.1,0.4-0.2,0.7-0.4
					c0.8-0.6,1.4-1.3,2.2-2.2c0.1-0.1,0.2-0.3,0.3-0.4c0.2-0.2,0.4-0.5,0.7-0.8c0.1-0.1,0.2-0.2,0.3-0.3c0.2-0.2,0.3-0.3,0.4-0.5
					c0.2-0.2,0.2-0.4,0.3-0.5c0.1-0.1,0.1-0.3,0.3-0.5c0.2-0.3,0.4-0.5,0.6-0.6c0.1-0.1,0.2-0.2,0.4-0.4c0.3-0.4,0.5-0.8,0.6-1.3
					l0.1-0.6l1.4,1.6l-0.1,0.2c-1.1,1.9-2.3,3.6-3.8,5.2c-2.8,3-6.2,5.4-10.2,7L5.2,24L3.7,22.2z M18.4,11.2c-0.1,0.4-0.3,0.7-0.5,1
					c-0.2,0.2-0.3,0.4-0.4,0.5c-0.1,0.1-0.3,0.3-0.5,0.5c-0.1,0.2-0.2,0.3-0.3,0.5c-0.1,0.2-0.2,0.3-0.3,0.6
					c-0.2,0.2-0.3,0.4-0.5,0.6c-0.1,0.1-0.2,0.2-0.3,0.3c-0.3,0.3-0.5,0.5-0.7,0.8c-0.1,0.1-0.2,0.2-0.3,0.4
					c-0.8,0.9-1.4,1.7-2.3,2.3c-0.4,0.3-0.6,0.4-0.8,0.5c-0.2,0.1-0.4,0.2-0.8,0.5c-0.3,0.2-0.4,0.4-0.6,0.5c-0.3,0.2-0.5,0.5-1,0.7
					c-0.2,0.1-0.3,0.1-0.4,0.2c-0.2,0.1-0.4,0.1-0.6,0.3c-0.2,0.1-0.3,0.2-0.4,0.3c-0.1,0.1-0.2,0.2-0.5,0.3
					c-0.4,0.2-0.6,0.2-0.8,0.2c-0.2,0-0.3,0-0.5,0.1c-0.2,0.1-0.3,0.2-0.4,0.3c-0.2,0.1-0.3,0.3-0.7,0.4c0,0-0.1,0-0.1,0l0.5,0.6
					c3.8-1.6,7.1-3.8,9.8-6.8c1.4-1.5,2.6-3.1,3.6-4.9L18.4,11.2z"/>
			</g>
		</g>
		<g>
			<g>
				<path class="st3" d="M4.3,22.5c0.1,0,0.3,0,0.6-0.1c0.5-0.2,0.5-0.4,1-0.7c0.5-0.3,0.6,0,1.2-0.3c0.4-0.2,0.4-0.3,0.8-0.6
					c0.5-0.3,0.7-0.3,1.1-0.5c0.7-0.3,0.8-0.6,1.5-1.2c0.8-0.6,0.8-0.4,1.6-0.9c0.9-0.6,1.5-1.3,2.2-2.2c0.4-0.5,0.5-0.7,1-1.2
					c0.4-0.4,0.5-0.5,0.7-0.8c0.3-0.5,0.3-0.6,0.6-1c0.4-0.6,0.6-0.6,0.9-1c0.2-0.3,0.5-0.7,0.6-1.5l-0.6-0.8
					c-0.1,0.2-0.3,0.4-0.4,0.7c-0.1,0.3,0,0.4-0.1,0.7c-0.1,0.3-0.4,0.4-0.7,0.7c-0.5,0.5-0.4,0.8-0.9,1.5c-0.4,0.6-0.5,0.4-1.2,1.1
					c-0.8,0.8-0.6,1-1.3,1.7c-0.6,0.6-0.7,0.4-1.5,1.1c-0.8,0.7-0.7,0.9-1.4,1.4c-0.5,0.3-0.6,0.3-1.4,0.7c-0.7,0.4-0.7,0.5-1.3,0.8
					c-0.6,0.3-0.7,0.2-1.2,0.5c-0.8,0.4-0.9,0.7-1.4,0.8c-0.3,0.1-0.7,0.2-1.4,0L4.3,22.5z"/>
			</g>
			<g>
				<path class="st5" d="M4.3,22.8l-0.1,0l-1.5-1.9l0.8,0.2c0.4,0.1,0.9,0.1,1.2,0C5,21.1,5.1,21,5.3,20.8c0.2-0.1,0.4-0.3,0.8-0.5
					c0.3-0.2,0.5-0.2,0.6-0.3C6.9,20,7,19.9,7.3,19.8c0.3-0.1,0.4-0.2,0.6-0.3c0.2-0.1,0.4-0.2,0.7-0.4c0.4-0.2,0.7-0.3,0.8-0.4
					c0.2-0.1,0.3-0.1,0.6-0.3c0.3-0.2,0.5-0.4,0.6-0.6c0.2-0.2,0.4-0.4,0.7-0.8c0.4-0.4,0.7-0.5,0.9-0.6c0.2-0.1,0.4-0.2,0.6-0.4
					c0.3-0.3,0.4-0.5,0.6-0.7c0.1-0.3,0.3-0.5,0.7-1c0.3-0.4,0.6-0.5,0.7-0.6c0.2-0.1,0.3-0.2,0.4-0.4c0.2-0.3,0.3-0.5,0.4-0.7
					c0.1-0.3,0.2-0.6,0.6-0.9c0.1-0.1,0.2-0.1,0.3-0.2c0.2-0.1,0.3-0.2,0.3-0.4c0-0.1,0-0.2,0-0.3c0-0.1,0-0.2,0.1-0.4
					c0.1-0.3,0.2-0.6,0.5-0.8l0.2-0.3l0.8,1.2l0,0.1c-0.1,0.6-0.3,1.1-0.7,1.6c-0.2,0.2-0.3,0.4-0.4,0.5c-0.1,0.1-0.3,0.3-0.5,0.5
					c-0.1,0.2-0.2,0.3-0.3,0.5c-0.1,0.2-0.2,0.3-0.3,0.6c-0.2,0.2-0.3,0.4-0.5,0.6c-0.1,0.1-0.2,0.2-0.3,0.3
					c-0.3,0.3-0.5,0.5-0.7,0.8c-0.1,0.1-0.2,0.2-0.3,0.4c-0.8,0.9-1.4,1.7-2.3,2.3c-0.4,0.3-0.6,0.4-0.8,0.5
					c-0.2,0.1-0.4,0.2-0.8,0.5c-0.3,0.2-0.4,0.4-0.6,0.5c-0.3,0.2-0.5,0.5-1,0.7c-0.2,0.1-0.3,0.1-0.4,0.2c-0.2,0.1-0.4,0.1-0.6,0.3
					c-0.2,0.1-0.3,0.2-0.4,0.3c-0.1,0.1-0.2,0.2-0.5,0.3c-0.4,0.2-0.6,0.2-0.8,0.2c-0.2,0-0.3,0-0.5,0.1c-0.2,0.1-0.3,0.2-0.4,0.3
					c-0.2,0.1-0.3,0.3-0.7,0.4C4.8,22.7,4.6,22.8,4.3,22.8C4.3,22.8,4.3,22.8,4.3,22.8z M17.7,10.2c-0.1,0.1-0.1,0.2-0.1,0.3
					c0,0.1,0,0.2,0,0.3c0,0.1,0,0.2-0.1,0.4c-0.1,0.3-0.3,0.5-0.5,0.6c-0.1,0.1-0.1,0.1-0.2,0.2c-0.2,0.2-0.3,0.4-0.4,0.6
					c-0.1,0.2-0.2,0.5-0.4,0.8c-0.2,0.3-0.4,0.4-0.6,0.6c-0.2,0.1-0.3,0.2-0.6,0.5c-0.4,0.4-0.5,0.6-0.6,0.8
					c-0.1,0.2-0.3,0.5-0.7,0.9c-0.3,0.3-0.5,0.4-0.8,0.5c-0.2,0.1-0.4,0.2-0.8,0.5c-0.4,0.3-0.5,0.5-0.7,0.7
					c-0.2,0.2-0.4,0.4-0.8,0.7c-0.3,0.2-0.4,0.3-0.6,0.3c-0.2,0.1-0.4,0.2-0.8,0.4c-0.3,0.2-0.5,0.3-0.6,0.4
					c-0.2,0.1-0.3,0.2-0.6,0.4c-0.3,0.2-0.5,0.2-0.7,0.3c-0.2,0.1-0.3,0.1-0.5,0.2C6,21,5.8,21.1,5.6,21.3c-0.2,0.2-0.4,0.3-0.7,0.4
					c-0.2,0.1-0.5,0.1-0.8,0.1l0.3,0.4c0.1,0,0.2,0,0.3-0.1C5,22.1,5.1,22,5.2,21.8c0.1-0.1,0.3-0.2,0.5-0.4
					c0.3-0.2,0.5-0.2,0.7-0.2c0.2,0,0.3,0,0.6-0.1c0.2-0.1,0.2-0.1,0.3-0.2c0.1-0.1,0.2-0.2,0.5-0.3c0.3-0.2,0.5-0.3,0.7-0.3
					c0.1,0,0.2-0.1,0.4-0.1c0.4-0.2,0.5-0.3,0.8-0.6c0.2-0.2,0.4-0.3,0.6-0.6c0.4-0.3,0.7-0.4,0.9-0.5c0.2-0.1,0.4-0.2,0.7-0.4
					c0.8-0.6,1.4-1.3,2.2-2.2c0.1-0.1,0.2-0.3,0.3-0.4c0.2-0.2,0.4-0.5,0.7-0.8c0.1-0.1,0.2-0.2,0.3-0.3c0.2-0.2,0.3-0.3,0.4-0.5
					c0.2-0.2,0.2-0.4,0.3-0.5c0.1-0.1,0.1-0.3,0.3-0.5c0.2-0.3,0.4-0.5,0.6-0.6c0.1-0.1,0.2-0.2,0.4-0.4c0.3-0.3,0.4-0.7,0.5-1.2
					L17.7,10.2z"/>
			</g>
		</g>
	</g>
</g>
</svg>
