<?xml version="1.0" encoding="utf-8"?>
<!-- Generator: Adobe Illustrator 23.0.1, SVG Export Plug-In . SVG Version: 6.00 Build 0)  -->
<svg version="1.1" id="Layer_1" xmlns="http://www.w3.org/2000/svg" xmlns:xlink="http://www.w3.org/1999/xlink" x="0px" y="0px"
	 viewBox="0 0 360 360" style="enable-background:new 0 0 360 360;" xml:space="preserve">
<style type="text/css">
	.st0{fill:#E38ABA;}
	.st1{font-family:'Blesson';}
	.st2{font-size:39.0107px;}
	.st3{fill:#AA8BC1;}
	.st4{fill:#725E83;}
	.st5{fill:#8A729E;}
	.st6{fill:#F5F7F6;}
	.st7{fill:#F0C1DA;}
	.st8{fill:#966083;}
	.st9{fill:#CCA2BB;}
</style>
<g>
	<text transform="matrix(1 0 0 1 170.1206 194.2334)" class="st0 st1 st2">Jolie</text>
	<text transform="matrix(1 0 0 1 0.4854 238.8184)" class="st0 st1 st2">Patisserie</text>
</g>
<g>
	<g>
		<g>
			<g>
				
					<ellipse transform="matrix(0.9984 -5.670177e-02 5.670177e-02 0.9984 -7.2461 7.2964)" class="st3" cx="125" cy="131.3" rx="36.8" ry="15.8"/>
			</g>
			<g>
				<path class="st4" d="M87.1,133.5c-0.5-9.5,15.7-17.9,36.9-19.1l0,0c21.2-1.2,38.3,5.3,38.8,14.8c0.3,4.7-3.6,9.3-10.8,12.9
					c-6.9,3.4-16.2,5.7-26.2,6.2c-1.7,0.1-3.4,0.1-5,0.1C102,148.4,87.6,142.2,87.1,133.5z M124.1,116.7
					c-19.3,1.1-35.2,8.7-34.8,16.7c0.5,7.9,17.1,13.7,36.4,12.6c9.7-0.5,18.6-2.7,25.3-6c6.2-3.1,9.7-7,9.5-10.7
					c-0.4-7.3-14.5-12.8-31.8-12.8C127.3,116.6,125.7,116.6,124.1,116.7z"/>
			</g>
		</g>
		<g>
			<g>
				<path class="st3" d="M162.4,152.8c0.6,8.7-15.2,16.8-35.2,18.1c-20,1.3-36.6-4.8-37.2-13.5c10.5,2.9,27.7,6.1,48.2,2.6
					C147.8,158.3,155.9,155.6,162.4,152.8z"/>
			</g>
			<g>
				<path class="st4" d="M100.9,169c-7.5-2.7-11.7-6.8-12-11.5l-0.1-1.6l1.5,0.4c15.9,4.4,32,5.3,47.8,2.5
					c8.2-1.4,16.2-3.8,23.9-7.1l1.5-0.6l0.1,1.6c0.3,4.7-3.4,9.3-10.5,12.9c-6.8,3.5-15.9,5.7-25.7,6.4c-1.8,0.1-3.6,0.2-5.3,0.2
					C114.1,172.2,106.8,171.1,100.9,169z M138.5,161.1c-15.5,2.7-31.3,2-47-2.1c1.1,3.1,4.7,5.9,10.2,7.9c6.9,2.5,15.9,3.5,25.4,2.9
					s18.3-2.8,24.8-6.1c5.2-2.7,8.4-5.9,9.1-9.1C153.8,157.6,146.2,159.8,138.5,161.1z"/>
			</g>
		</g>
		<g>
			<g>
				<path class="st5" d="M161.7,129.3c0.5,8.7-15.6,16.7-35.8,17.9s-37.1-5-37.6-13.7l1.7,12.6c1.6,2.1,3.1,3,4.2,3.4
					c2.1,0.8,2.9,0.1,6.4,0.7c2.5,0.4,2.4,0.8,5.1,1.4c2.5,0.5,2.9,0.1,5.9,0.6c3.7,0.6,3.9,1.1,6.2,1.2c3.3,0.2,3.6-0.7,7.7-0.9
					c4.1-0.2,4,0.7,7.3,0.4c3.7-0.4,3.8-1.6,8.1-2.2c3.7-0.5,3.8,0.3,6.3-0.4c3.2-1,3.6-2.5,6.4-2.7c1.5-0.1,2.5,0.3,3.7-0.5
					c0.9-0.5,1-1.1,2-1.8c1.1-0.8,2.2-1.2,3-1.3C162.1,138.9,161.9,134.1,161.7,129.3z"/>
			</g>
			<g>
				<path class="st4" d="M117.7,154.4c-1.3-0.1-2-0.3-2.8-0.5c-0.8-0.2-1.7-0.4-3.4-0.7c-1.4-0.2-2.2-0.3-3-0.3
					c-0.8,0-1.6-0.1-2.9-0.3c-1.5-0.3-2.2-0.5-2.9-0.8c-0.6-0.2-1.1-0.4-2.3-0.6c-1.6-0.3-2.5-0.3-3.4-0.3c-1,0-1.9,0-3.2-0.5
					c-1.8-0.7-3.4-1.9-4.8-3.8l-0.2-0.2l-1.6-11.8c-0.1-0.4-0.1-0.8-0.1-1.1l2.3-0.2l0.1,1c1.6,7.5,17.8,12.8,36.3,11.7
					c9.7-0.5,18.6-2.7,25.3-6c6.2-3.1,9.6-6.9,9.5-10.5l0-0.2l2.3-0.1c0,0.1,0,0.1,0,0.2l0.7,15.2l-1,0.2c-1,0.2-1.8,0.5-2.5,1.1
					c-0.4,0.3-0.6,0.5-0.8,0.8c-0.3,0.3-0.7,0.7-1.3,1.1c-1.2,0.7-2.2,0.7-3.2,0.6c-0.4,0-0.7,0-1.1,0c-1.3,0.1-1.9,0.5-2.8,1
					c-0.8,0.5-1.8,1.1-3.3,1.6c-1.5,0.5-2.3,0.4-3.2,0.4c-0.7-0.1-1.6-0.1-3.3,0.1c-2,0.3-3,0.7-4,1.1c-1,0.4-2.1,0.9-4.1,1.1
					c-1.8,0.2-2.7,0-3.6-0.1c-0.9-0.2-1.8-0.3-3.7-0.2c-1.8,0.1-2.9,0.3-3.8,0.5c-0.9,0.2-1.8,0.4-3.1,0.4
					C118.3,154.4,118,154.4,117.7,154.4z M129.6,151.4c0.9,0.2,1.5,0.3,3,0.1c1.7-0.2,2.5-0.5,3.5-0.9c1.1-0.4,2.3-0.9,4.6-1.3
					c1.9-0.3,2.9-0.2,3.7-0.1c0.8,0.1,1.3,0.1,2.4-0.3c1.3-0.4,2.1-0.9,2.8-1.4c1-0.6,2-1.3,3.9-1.4c0.5,0,0.9,0,1.3,0
					c0.9,0,1.3,0,1.9-0.3c0.3-0.2,0.5-0.4,0.7-0.7c0.3-0.3,0.6-0.7,1.2-1.1c0.7-0.6,1.6-1,2.5-1.3l-0.3-7.5
					c-1.8,2.4-4.7,4.7-8.7,6.7c-6.9,3.4-16.2,5.7-26.2,6.2c-16.1,0.9-29.8-2.6-35.7-8.5l0.8,5.8c1.1,1.4,2.3,2.3,3.6,2.8
					c0.9,0.3,1.5,0.3,2.4,0.3c0.9,0,2,0,3.8,0.3c1.3,0.2,2,0.5,2.6,0.7c0.6,0.2,1.2,0.4,2.5,0.7c1.2,0.2,1.8,0.2,2.6,0.3
					c0.8,0,1.7,0.1,3.2,0.3c1.8,0.3,2.8,0.6,3.6,0.8c0.8,0.2,1.4,0.4,2.4,0.4c1.6,0.1,2.3-0.1,3.4-0.3c1-0.2,2.1-0.5,4.2-0.6
					c0.5,0,0.9,0,1.2,0C128,151.2,128.8,151.3,129.6,151.4z"/>
			</g>
		</g>
		<g>
			<g>
				<path class="st5" d="M162.4,152.8c-6.5,2.8-14.6,5.5-24.1,7.1c-20.5,3.5-37.8,0.3-48.2-2.6c0-1.9-0.1-3.9-0.1-5.8
					c0.4,0.3,1.1,0.8,2,1.1c1.9,0.6,2.7-0.1,4.6,0.2c2.2,0.3,2.1,1.4,4.7,2c1.6,0.4,1.9,0,4,0.3c2.2,0.3,2.7,0.8,4.5,1.2
					c2.8,0.7,3.9,0,7.4,0c3.8,0,3.5,0.8,7.4,1c4.2,0.2,7.7-0.6,12.4-1.6c2.3-0.5,3.3-0.9,5.9-1.3c2-0.3,2.7-0.3,4.2-0.8
					c2.2-0.6,2.3-1.1,4.3-1.8c2.5-0.9,3.2-0.4,5.4-1c1.3-0.4,3.3-1.2,5.4-3.1C162.2,149.4,162.3,151.1,162.4,152.8z"/>
			</g>
			<g>
				<path class="st4" d="M89.7,158.5l-0.8-0.2l-0.2-9.1l1.9,1.5c0.5,0.4,1.1,0.7,1.6,0.9c0.8,0.3,1.4,0.2,2.1,0.1
					c0.6-0.1,1.4-0.1,2.3,0c1.4,0.2,2.1,0.7,2.7,1.1c0.5,0.4,1,0.7,2.1,0.9c0.7,0.2,1.1,0.1,1.6,0.1c0.5,0,1.2,0,2.3,0.1
					c1.4,0.2,2.2,0.5,3,0.7c0.5,0.2,0.9,0.3,1.6,0.5c1.6,0.4,2.5,0.3,3.9,0.1c0.9-0.1,1.9-0.2,3.3-0.2c2.1,0,3.1,0.3,4.1,0.5
					c0.8,0.2,1.6,0.4,3.3,0.5c4,0.2,7.4-0.5,12.1-1.6c0.7-0.2,1.3-0.3,1.9-0.4c1.2-0.3,2.3-0.6,4-0.8c0.6-0.1,1.1-0.2,1.6-0.2
					c1-0.1,1.6-0.2,2.5-0.5c1-0.3,1.5-0.6,2.1-0.9c0.5-0.3,1.1-0.6,2.2-0.9c1.5-0.5,2.5-0.6,3.3-0.7c0.7-0.1,1.2-0.1,2.1-0.4
					c1.7-0.5,3.4-1.4,4.9-2.8l1.7-1.6l0.5,8.3l-0.7,0.3c-7.8,3.3-16,5.8-24.4,7.2c-6.1,1.1-12.3,1.6-18.5,1.6
					C109.9,162.7,99.8,161.3,89.7,158.5z M161.1,149.9c-1.3,0.9-2.7,1.5-4.1,1.9c-1.1,0.3-1.8,0.4-2.5,0.4c-0.8,0.1-1.5,0.1-2.8,0.6
					c-0.9,0.3-1.4,0.5-1.9,0.8c-0.6,0.3-1.3,0.7-2.5,1c-1.1,0.3-1.9,0.4-2.9,0.6c-0.4,0.1-0.9,0.1-1.5,0.2c-1.7,0.3-2.7,0.5-3.9,0.8
					c-0.6,0.1-1.2,0.3-2,0.5c-4.7,1-8.3,1.8-12.7,1.6c-1.9-0.1-2.9-0.3-3.8-0.6c-0.9-0.2-1.7-0.4-3.5-0.4c-1.3,0-2.3,0.1-3.1,0.2
					c-1.4,0.1-2.7,0.3-4.6-0.2c-0.7-0.2-1.3-0.4-1.8-0.5c-0.7-0.3-1.4-0.5-2.6-0.6c-0.9-0.1-1.5-0.1-2-0.1c-0.6,0-1.2,0-2.2-0.2
					c-1.5-0.3-2.3-0.8-2.9-1.3c-0.5-0.4-0.9-0.6-1.7-0.7c-0.7-0.1-1.2,0-1.8,0c-0.8,0.1-1.7,0.2-3-0.3c-0.1,0-0.3-0.1-0.4-0.2l0.1,3
					c15.6,4.2,31.4,5,46.9,2.3c7.9-1.4,15.7-3.6,23.1-6.7L161.1,149.9z"/>
			</g>
		</g>
		<g>
			<g>
				<path class="st6" d="M89.9,151.6c0.4,0.3,1.1,0.8,2,1.1c1.9,0.6,2.7-0.1,4.6,0.2c2.2,0.3,2.1,1.4,4.7,2c1.6,0.4,1.9,0,4,0.3
					c2.2,0.3,2.7,0.8,4.5,1.2c2.8,0.7,3.9,0,7.4,0c3.8,0,3.5,0.8,7.4,1c4.2,0.2,7.7-0.6,12.4-1.6c2.3-0.5,3.3-0.9,5.9-1.3
					c2-0.3,2.7-0.3,4.2-0.8c2.2-0.6,2.3-1.1,4.3-1.8c2.5-0.9,3.2-0.4,5.4-1c1.3-0.4,3.3-1.2,5.4-3.1l0.3-4c-0.8,0.1-1.9,0.5-3,1.3
					c-1,0.8-1.1,1.3-2,1.8c-1.2,0.8-2.3,0.4-3.7,0.5c-2.8,0.2-3.2,1.7-6.4,2.7c-2.5,0.8-2.6-0.1-6.3,0.4c-4.3,0.6-4.4,1.8-8.1,2.2
					c-3.3,0.3-3.2-0.6-7.3-0.4c-4.1,0.2-4.4,1.1-7.7,0.9c-2.2-0.1-2.5-0.6-6.2-1.2c-3-0.5-3.4-0.1-5.9-0.6c-2.8-0.5-2.6-0.9-5.1-1.4
					c-3.5-0.6-4.4,0.1-6.4-0.7c-1.1-0.4-2.7-1.3-4.2-3.4L89.9,151.6z"/>
			</g>
			<g>
				<path class="st4" d="M124.4,158.4c-1.9-0.1-2.9-0.3-3.8-0.6c-0.9-0.2-1.7-0.4-3.5-0.4c-1.3,0-2.3,0.1-3.1,0.2
					c-1.4,0.1-2.7,0.3-4.6-0.2c-0.7-0.2-1.3-0.4-1.8-0.5c-0.7-0.3-1.4-0.5-2.6-0.6c-0.9-0.1-1.5-0.1-2-0.1c-0.6,0-1.2,0-2.2-0.2
					c-1.5-0.3-2.3-0.8-2.9-1.3c-0.5-0.4-0.9-0.6-1.7-0.7c-0.7-0.1-1.2,0-1.8,0c-0.8,0.1-1.7,0.2-3-0.3c-0.8-0.3-1.6-0.7-2.3-1.3
					l-0.4-0.3l0-9.6l2.1,2.8c1.1,1.5,2.4,2.5,3.7,3c0.9,0.3,1.5,0.3,2.4,0.3c0.9,0,2,0,3.8,0.3c1.3,0.2,2,0.5,2.6,0.7
					c0.6,0.2,1.2,0.4,2.5,0.7c1.2,0.2,1.8,0.2,2.6,0.3c0.8,0,1.7,0.1,3.2,0.3c1.8,0.3,2.8,0.6,3.6,0.8c0.8,0.2,1.4,0.4,2.4,0.4
					c1.6,0.1,2.3-0.1,3.4-0.3c1-0.2,2.1-0.5,4.2-0.6c2.2-0.1,3.3,0.1,4.3,0.3c0.9,0.2,1.5,0.3,3,0.1c1.7-0.2,2.5-0.5,3.5-0.9
					c1.1-0.4,2.3-0.9,4.6-1.3c1.9-0.3,2.9-0.2,3.7-0.1c0.8,0.1,1.3,0.1,2.4-0.3c1.3-0.4,2.1-0.9,2.8-1.4c1-0.6,2-1.3,3.9-1.4
					c0.5,0,0.9,0,1.3,0c0.9,0,1.3,0,1.9-0.3c0.3-0.2,0.5-0.4,0.7-0.7c0.3-0.3,0.6-0.7,1.2-1.1c1-0.8,2.2-1.3,3.5-1.5l1.4-0.3
					l-0.4,5.9l-0.3,0.3c-1.8,1.6-3.8,2.8-5.8,3.3c-1.1,0.3-1.8,0.4-2.5,0.4c-0.8,0.1-1.5,0.1-2.8,0.6c-0.9,0.3-1.4,0.5-1.9,0.8
					c-0.6,0.3-1.3,0.7-2.5,1c-1.1,0.3-1.9,0.4-2.9,0.6c-0.4,0.1-0.9,0.1-1.5,0.2c-1.7,0.3-2.7,0.5-3.9,0.8c-0.6,0.1-1.2,0.3-2,0.5
					c-4.1,0.9-7.5,1.7-11.2,1.7C125.4,158.4,124.9,158.4,124.4,158.4z M161.1,145.3c-0.4,0.2-0.8,0.4-1.1,0.6
					c-0.4,0.3-0.6,0.5-0.8,0.8c-0.3,0.3-0.7,0.7-1.3,1.1c-1.2,0.7-2.2,0.7-3.2,0.6c-0.4,0-0.7,0-1.1,0c-1.3,0.1-1.9,0.5-2.8,1
					c-0.8,0.5-1.8,1.1-3.3,1.6c-1.5,0.5-2.3,0.4-3.2,0.4c-0.7-0.1-1.6-0.1-3.3,0.1c-2,0.3-3,0.7-4,1.1c-1,0.4-2.1,0.9-4.1,1.1
					c-1.8,0.2-2.7,0-3.6-0.1c-0.9-0.2-1.8-0.3-3.7-0.2c-1.8,0.1-2.9,0.3-3.8,0.5c-1.1,0.3-2.1,0.5-4,0.4c-1.3-0.1-2-0.3-2.8-0.5
					c-0.8-0.2-1.7-0.4-3.4-0.7c-1.4-0.2-2.2-0.3-3-0.3c-0.8,0-1.6-0.1-2.9-0.3c-1.5-0.3-2.2-0.5-2.9-0.8c-0.6-0.2-1.1-0.4-2.3-0.6
					c-1.6-0.3-2.5-0.3-3.4-0.3c-1,0-1.9,0-3.2-0.5c-1-0.4-1.9-0.9-2.7-1.6l0,2.1c0.4,0.3,0.8,0.5,1.2,0.6c0.8,0.3,1.4,0.2,2.1,0.1
					c0.6-0.1,1.4-0.1,2.3,0c1.4,0.2,2.1,0.7,2.7,1.1c0.5,0.4,1,0.7,2.1,0.9c0.7,0.2,1.1,0.1,1.6,0.1c0.5,0,1.2,0,2.3,0.1
					c1.4,0.2,2.2,0.5,3,0.7c0.5,0.2,0.9,0.3,1.6,0.5c1.6,0.4,2.5,0.3,3.9,0.1c0.9-0.1,1.9-0.2,3.3-0.2c2.1,0,3.1,0.3,4.1,0.5
					c0.8,0.2,1.6,0.4,3.3,0.5c4,0.2,7.4-0.5,12.1-1.6c0.7-0.2,1.3-0.3,1.9-0.4c1.2-0.3,2.3-0.6,4-0.8c0.6-0.1,1.1-0.2,1.6-0.2
					c1-0.1,1.6-0.2,2.5-0.5c1-0.3,1.5-0.6,2.1-0.9c0.5-0.3,1.1-0.6,2.2-0.9c1.5-0.5,2.5-0.6,3.3-0.7c0.7-0.1,1.2-0.1,2.1-0.4
					c1.6-0.5,3.1-1.3,4.6-2.5L161.1,145.3z"/>
			</g>
		</g>
	</g>
	<g>
		<g>
			<g>
				
					<ellipse transform="matrix(0.7573 -0.653 0.653 0.7573 -65.0901 77.2726)" class="st7" cx="71.4" cy="126.2" rx="36.8" ry="15.8"/>
			</g>
			<g>
				<path class="st8" d="M42.7,151c-6.2-7.2,1.6-23.7,17.7-37.6l0,0c16.1-13.9,33.6-19.1,39.8-11.9c6.2,7.2-1.6,23.7-17.7,37.6
					c-11.2,9.7-23.1,15.2-31.4,15.2C47.5,154.2,44.6,153.2,42.7,151z M61.8,115.1L61.8,115.1c-14.6,12.6-22.6,28.4-17.4,34.4
					c5.2,6,22,0.4,36.6-12.2c14.6-12.6,22.6-28.4,17.4-34.4c-1.4-1.7-3.7-2.4-6.6-2.4C84.2,100.5,72.5,105.9,61.8,115.1z"/>
			</g>
		</g>
		<g>
			<g>
				<path class="st7" d="M114.2,120.5c5.7,6.6-1.8,22.6-16.9,35.8c-15.1,13.2-32,18.5-37.7,11.9c10.1-4.1,25.7-12,39.8-27.4
					C106,133.7,110.8,126.6,114.2,120.5z"/>
			</g>
			<g>
				<path class="st8" d="M58.7,168.9l-1-1.2l1.5-0.6c15.3-6.2,28.6-15.3,39.4-27.1c5.6-6.1,10.5-12.9,14.6-20.1l0.8-1.4l1.1,1.2
					c6.3,7.2-1.2,23.6-17,37.4c-11,9.6-22.7,15-30.9,15C63.6,172.1,60.6,171.1,58.7,168.9z M100.3,141.6
					c-10.7,11.6-23.6,20.6-38.5,26.9c6.3,4.1,21.5-1.5,34.8-13.1c13.3-11.6,20.9-26,17.7-32.7C110.3,129.5,105.6,135.8,100.3,141.6z
					"/>
			</g>
		</g>
		<g>
			<g>
				<path class="st9" d="M99.3,102.2c5.7,6.6-2.2,22.7-17.5,36s-32.5,18.7-38.2,12.1l9,9c2.5,0.7,4.3,0.5,5.4,0.1
					c2.1-0.6,2.4-1.7,5.5-3.3c2.3-1.2,2.4-0.8,4.9-2.1c2.3-1.1,2.4-1.7,5-3.1c3.3-1.8,3.8-1.6,5.6-2.8c2.7-1.8,2.4-2.7,5.5-5.4
					c3.1-2.7,3.6-1.9,6-4.2c2.7-2.6,2.1-3.6,5.1-6.7c2.6-2.7,3.2-2,4.7-4.2c1.9-2.8,1.3-4.2,3.4-6c1.1-1,2.2-1.3,2.7-2.7
					c0.4-0.9,0.1-1.5,0.5-2.7c0.4-1.3,1.1-2.3,1.6-2.9C105.5,109.6,102.4,105.9,99.3,102.2z"/>
			</g>
			<g>
				<path class="st8" d="M52.2,160.3l-0.3-0.1l-8.4-8.4c-0.3-0.3-0.6-0.5-0.8-0.8l1.7-1.5l0.7,0.7c1.4,1.2,3.5,1.8,6,1.8
					c7.6,0,19.4-5.5,30-14.6c14.5-12.5,22.5-28.2,17.5-34.3l-0.1-0.1l1.7-1.5c0,0.1,0.1,0.1,0.1,0.2l9.8,11.7l-0.7,0.7
					c-0.7,0.7-1.1,1.6-1.4,2.4c-0.1,0.5-0.2,0.8-0.2,1.2c0,0.5-0.1,1-0.3,1.6c-0.5,1.3-1.3,1.9-2.1,2.4c-0.3,0.2-0.6,0.4-0.9,0.7
					c-1,0.8-1.2,1.5-1.6,2.5c-0.3,0.9-0.7,2-1.7,3.3c-0.9,1.3-1.6,1.7-2.3,2.3c-0.6,0.4-1.3,0.9-2.5,2.1c-1.4,1.5-2,2.4-2.5,3.3
					c-0.6,1-1.1,2-2.6,3.4c-1.3,1.2-2.1,1.7-3,2.1c-0.8,0.4-1.6,0.8-3.1,2.1c-1.4,1.2-2.1,2-2.6,2.7c-0.7,0.9-1.4,1.7-3,2.8
					c-1.1,0.7-1.7,1-2.6,1.3c-0.7,0.3-1.6,0.7-3.2,1.5c-1.2,0.7-1.9,1.1-2.5,1.6c-0.7,0.5-1.3,0.9-2.5,1.5c-1.3,0.7-2.1,0.9-2.7,1.1
					c-0.6,0.2-1.1,0.4-2.2,0.9c-1.4,0.7-2.2,1.3-2.9,1.8c-0.8,0.6-1.5,1.2-2.9,1.6c-0.9,0.3-1.8,0.4-2.7,0.4
					C54.5,160.8,53.4,160.6,52.2,160.3z M102.3,107.5c0.2,8.4-7.3,20.7-19.8,31.5c-11.2,9.7-23.1,15.2-31.4,15.2
					c-0.7,0-1.4,0-2.1-0.1l4.1,4.1c1.7,0.4,3.2,0.4,4.5,0c0.9-0.3,1.4-0.6,2.1-1.2c0.7-0.6,1.6-1.2,3.2-2.1c1.2-0.6,1.9-0.8,2.5-1.1
					c0.6-0.2,1.2-0.4,2.4-1c1.1-0.5,1.6-0.9,2.2-1.4c0.6-0.5,1.4-1,2.8-1.7c1.6-0.9,2.6-1.3,3.4-1.6c0.8-0.3,1.3-0.6,2.2-1.1
					c1.3-0.9,1.8-1.5,2.5-2.3c0.6-0.8,1.4-1.7,2.9-3c1.7-1.4,2.7-1.9,3.5-2.4c0.8-0.4,1.4-0.7,2.5-1.7c1.2-1.2,1.7-2,2.2-2.9
					c0.6-1,1.2-2.1,2.8-3.8c1.3-1.4,2.2-1.9,2.9-2.4c0.7-0.4,1.1-0.7,1.7-1.7c0.8-1.1,1.1-2,1.4-2.8c0.4-1.1,0.8-2.2,2.2-3.5
					c0.4-0.3,0.7-0.6,1-0.8c0.7-0.5,1.1-0.8,1.3-1.4c0.1-0.3,0.2-0.6,0.2-1c0-0.4,0.1-0.9,0.3-1.6c0.2-0.9,0.7-1.8,1.2-2.6
					L102.3,107.5z"/>
			</g>
		</g>
		<g>
			<g>
				<path class="st9" d="M114.2,120.5c-3.4,6.1-8.2,13.2-14.8,20.3c-14.1,15.3-29.7,23.3-39.8,27.4c-1.2-1.5-2.4-3-3.7-4.5
					c0.5,0,1.3,0,2.2-0.3c1.9-0.6,2.1-1.7,3.8-2.7c2-1.1,2.5-0.1,4.9-1.3c1.5-0.7,1.5-1.2,3.3-2.3c1.9-1.1,2.6-1.1,4.3-1.8
					c2.7-1.2,3.1-2.4,5.9-4.5c3-2.3,3.3-1.5,6.5-3.7c3.5-2.4,5.8-5.1,8.8-8.8c1.5-1.8,2.1-2.7,3.9-4.6c1.4-1.5,2-1.9,2.9-3.2
					c1.3-1.8,1.1-2.3,2.3-4.1c1.5-2.2,2.3-2.3,3.6-4.1c0.8-1.1,1.9-2.9,2.4-5.7C111.9,117.9,113.1,119.2,114.2,120.5z"/>
			</g>
			<g>
				<path class="st8" d="M53.5,162.5l2.4,0c0.6,0,1.3-0.1,1.8-0.3c0.8-0.3,1.2-0.6,1.7-1.2c0.5-0.4,1-0.9,1.8-1.4
					c1.2-0.7,2-0.7,2.8-0.8c0.6,0,1.2-0.1,2.2-0.5c0.7-0.3,0.9-0.5,1.3-0.9c0.4-0.3,0.9-0.8,1.9-1.3c1.2-0.7,2.1-1,2.9-1.3
					c0.5-0.2,0.9-0.3,1.5-0.6c1.5-0.7,2.1-1.3,3.2-2.2c0.7-0.6,1.4-1.3,2.5-2.2c1.7-1.3,2.6-1.7,3.5-2.1c0.8-0.3,1.6-0.7,3-1.6
					c3.3-2.3,5.5-4.9,8.6-8.6c0.5-0.6,0.9-1.1,1.2-1.5c0.8-1,1.5-1.8,2.7-3.1c0.4-0.5,0.8-0.8,1.1-1.1c0.7-0.7,1.1-1.1,1.7-1.9
					c0.6-0.9,0.9-1.4,1.2-2c0.3-0.5,0.5-1.2,1.2-2.1c0.9-1.3,1.6-2,2.2-2.6c0.5-0.5,0.9-0.8,1.5-1.6c1.1-1.4,1.8-3.2,2.2-5.3
					l0.4-2.3l5.4,6.3l-0.4,0.7c-4.2,7.4-9.2,14.3-14.9,20.6c-11.1,12-24.6,21.3-40.2,27.6l-0.8,0.3L53.5,162.5z M111.4,119
					c-0.5,1.5-1.2,2.8-2,4c-0.7,0.9-1.2,1.4-1.7,1.9c-0.6,0.5-1.1,1-1.9,2.1c-0.5,0.8-0.7,1.3-1,1.8c-0.3,0.6-0.6,1.3-1.4,2.4
					c-0.7,0.9-1.2,1.5-1.9,2.2c-0.3,0.3-0.6,0.7-1.1,1.1c-1.2,1.2-1.8,2-2.6,3c-0.4,0.5-0.8,1-1.3,1.6c-3.1,3.6-5.5,6.5-9.1,9
					c-1.6,1.1-2.5,1.5-3.3,1.9c-0.9,0.4-1.6,0.7-3.1,1.8c-1,0.8-1.7,1.4-2.4,2c-1,1-1.9,1.8-3.8,2.7c-0.7,0.3-1.2,0.5-1.7,0.7
					c-0.7,0.3-1.4,0.5-2.4,1.1c-0.8,0.5-1.2,0.8-1.6,1.1c-0.5,0.4-0.9,0.7-1.8,1.2c-1.4,0.7-2.3,0.7-3.1,0.8c-0.6,0-1,0.1-1.8,0.5
					c-0.6,0.3-1,0.7-1.4,1.1c-0.6,0.6-1.3,1.2-2.6,1.7c-0.1,0-0.3,0.1-0.4,0.1l1.9,2.3c15-6.2,28-15.2,38.6-26.8
					c5.4-5.9,10.2-12.4,14.2-19.4L111.4,119z"/>
			</g>
		</g>
		<g>
			<g>
				<path class="st6" d="M55.9,163.6c0.5,0,1.3,0,2.2-0.3c1.9-0.6,2.1-1.7,3.8-2.7c2-1.1,2.5-0.1,4.9-1.3c1.5-0.7,1.5-1.2,3.3-2.3
					c1.9-1.1,2.6-1.1,4.3-1.8c2.7-1.2,3.1-2.4,5.9-4.5c3-2.3,3.3-1.5,6.5-3.7c3.5-2.4,5.8-5.1,8.8-8.8c1.5-1.8,2.1-2.7,3.9-4.6
					c1.4-1.5,2-1.9,2.9-3.2c1.3-1.8,1.1-2.3,2.3-4.1c1.5-2.2,2.3-2.3,3.6-4.1c0.8-1.1,1.9-2.9,2.4-5.7l-2.2-3.3
					c-0.5,0.6-1.2,1.6-1.6,2.9c-0.3,1.2-0.1,1.7-0.5,2.7c-0.5,1.4-1.5,1.7-2.7,2.7c-2.1,1.9-1.5,3.3-3.4,6c-1.5,2.2-2.1,1.5-4.7,4.2
					c-3,3.1-2.4,4.1-5.1,6.7c-2.4,2.3-2.9,1.5-6,4.2c-3.1,2.7-2.8,3.6-5.5,5.4c-1.9,1.2-2.3,1-5.6,2.8c-2.6,1.4-2.8,2-5,3.1
					c-2.5,1.3-2.7,0.9-4.9,2.1c-3.2,1.7-3.4,2.7-5.5,3.3c-1.1,0.3-2.9,0.6-5.4-0.1L55.9,163.6z"/>
			</g>
			<g>
				<path class="st8" d="M55.9,164.8l-0.5,0l-5.9-7.6l3.3,0.9c1.8,0.5,3.4,0.5,4.8,0.1c0.9-0.3,1.4-0.6,2.1-1.2
					c0.7-0.6,1.6-1.2,3.2-2.1c1.2-0.6,1.9-0.8,2.5-1.1c0.6-0.2,1.2-0.4,2.4-1c1.1-0.5,1.6-0.9,2.2-1.4c0.6-0.5,1.4-1,2.8-1.7
					c1.6-0.9,2.6-1.3,3.4-1.6c0.8-0.3,1.3-0.6,2.2-1.1c1.3-0.9,1.8-1.5,2.5-2.3c0.6-0.8,1.4-1.7,2.9-3c1.7-1.4,2.7-1.9,3.5-2.4
					c0.8-0.4,1.4-0.7,2.5-1.7c1.2-1.2,1.7-2,2.2-2.9c0.6-1,1.2-2.1,2.8-3.8c1.3-1.4,2.2-1.9,2.9-2.4c0.7-0.4,1.1-0.7,1.7-1.7
					c0.8-1.1,1.1-2,1.4-2.8c0.4-1.1,0.8-2.2,2.2-3.5c0.4-0.3,0.7-0.6,1-0.8c0.7-0.5,1.1-0.8,1.3-1.4c0.1-0.3,0.2-0.6,0.2-1
					c0-0.4,0.1-0.9,0.3-1.6c0.3-1.2,1-2.3,1.9-3.3l1-1.1l3.3,4.9l-0.1,0.5c-0.4,2.4-1.3,4.5-2.6,6.2c-0.7,0.9-1.2,1.4-1.7,1.9
					c-0.6,0.5-1.1,1-1.9,2.1c-0.5,0.8-0.7,1.3-1,1.8c-0.3,0.6-0.6,1.3-1.4,2.4c-0.7,0.9-1.2,1.5-1.9,2.2c-0.3,0.3-0.6,0.7-1.1,1.1
					c-1.2,1.2-1.8,2-2.6,3c-0.4,0.5-0.8,1-1.3,1.6c-3.1,3.6-5.5,6.5-9.1,9c-1.6,1.1-2.5,1.5-3.3,1.9c-0.9,0.4-1.6,0.7-3.1,1.8
					c-1,0.8-1.7,1.4-2.4,2c-1,1-1.9,1.8-3.8,2.7c-0.7,0.3-1.2,0.5-1.7,0.7c-0.7,0.3-1.4,0.5-2.4,1.1c-0.8,0.5-1.2,0.8-1.6,1.1
					c-0.5,0.4-0.9,0.7-1.8,1.2c-1.4,0.7-2.3,0.7-3.1,0.8c-0.6,0-1,0.1-1.8,0.5c-0.6,0.3-1,0.7-1.4,1.1c-0.6,0.6-1.3,1.2-2.6,1.7
					c-0.8,0.3-1.6,0.4-2.5,0.4C56,164.8,56,164.8,55.9,164.8z M108.6,115.3c-0.2,0.4-0.4,0.8-0.5,1.2c-0.1,0.5-0.2,0.8-0.2,1.2
					c0,0.5-0.1,1-0.3,1.6c-0.5,1.3-1.3,1.9-2.1,2.4c-0.3,0.2-0.6,0.4-0.9,0.7c-1,0.8-1.2,1.5-1.6,2.5c-0.3,0.9-0.7,2-1.7,3.3
					c-0.9,1.3-1.6,1.7-2.3,2.3c-0.6,0.4-1.3,0.9-2.5,2.1c-1.4,1.5-2,2.4-2.5,3.3c-0.6,1-1.1,2-2.6,3.4c-1.3,1.2-2.1,1.7-3,2.1
					c-0.8,0.4-1.6,0.8-3.1,2.1c-1.4,1.2-2.1,2-2.6,2.7c-0.7,0.9-1.4,1.7-3,2.8c-1.1,0.7-1.7,1-2.6,1.3c-0.7,0.3-1.6,0.7-3.2,1.5
					c-1.2,0.7-1.9,1.1-2.5,1.6c-0.7,0.5-1.3,0.9-2.5,1.5c-1.3,0.7-2.1,0.9-2.7,1.1c-0.6,0.2-1.1,0.4-2.2,0.9
					c-1.4,0.7-2.2,1.3-2.9,1.8c-0.8,0.6-1.5,1.2-2.9,1.6c-1,0.3-2,0.4-3.1,0.4l1.3,1.7c0.5,0,0.9-0.1,1.3-0.3
					c0.8-0.3,1.2-0.6,1.7-1.2c0.5-0.4,1-0.9,1.8-1.4c1.2-0.7,2-0.7,2.8-0.8c0.6,0,1.2-0.1,2.2-0.5c0.7-0.3,0.9-0.5,1.3-0.9
					c0.4-0.3,0.9-0.8,1.9-1.3c1.2-0.7,2.1-1,2.9-1.3c0.5-0.2,0.9-0.3,1.5-0.6c1.5-0.7,2.1-1.3,3.2-2.2c0.7-0.6,1.4-1.3,2.5-2.2
					c1.7-1.3,2.6-1.7,3.5-2.1c0.8-0.3,1.6-0.7,3-1.6c3.3-2.3,5.5-4.9,8.6-8.6c0.5-0.6,0.9-1.1,1.2-1.5c0.8-1,1.5-1.8,2.7-3.1
					c0.4-0.5,0.8-0.8,1.1-1.1c0.7-0.7,1.1-1.1,1.7-1.9c0.6-0.9,0.9-1.4,1.2-2c0.3-0.5,0.5-1.2,1.2-2.1c0.9-1.3,1.6-2,2.2-2.6
					c0.5-0.5,0.9-0.8,1.5-1.6c1-1.3,1.7-3,2.1-4.8L108.6,115.3z"/>
			</g>
		</g>
	</g>
</g>
</svg>
