<?xml version="1.0" encoding="utf-8"?>
<!-- Generator: Adobe Illustrator 23.0.1, SVG Export Plug-In . SVG Version: 6.00 Build 0)  -->
<svg version="1.1" id="Layer_1" xmlns="http://www.w3.org/2000/svg" xmlns:xlink="http://www.w3.org/1999/xlink" x="0px" y="0px"
	 viewBox="0 0 64 64" style="enable-background:new 0 0 64 64;" xml:space="preserve">
<style type="text/css">
	.st0{fill:#E38ABA;}
	.st1{font-family:'Blesson';}
	.st2{font-size:6.9574px;}
	.st3{fill:#AA8BC1;}
	.st4{fill:#725E83;}
	.st5{fill:#8A729E;}
	.st6{fill:#F5F7F6;}
	.st7{fill:#F0C1DA;}
	.st8{fill:#966083;}
	.st9{fill:#CCA2BB;}
</style>
<g>
	<text transform="matrix(1 0 0 1 30.2334 31.5381)" class="st0 st1 st2">Jolie</text>
	<text transform="matrix(1 0 0 1 -2.148438e-02 39.4893)" class="st0 st1 st2">Patisserie</text>
</g>
<g>
	<g>
		<g>
			<g>
				
					<ellipse transform="matrix(0.9984 -5.670177e-02 5.670177e-02 0.9984 -1.1165 1.2902)" class="st3" cx="22.2" cy="20.3" rx="6.6" ry="2.8"/>
			</g>
			<g>
				<path class="st4" d="M15.4,20.7c-0.1-1.7,2.8-3.2,6.6-3.4l0,0c3.8-0.2,6.8,0.9,6.9,2.6c0,0.8-0.6,1.7-1.9,2.3
					c-1.2,0.6-2.9,1-4.7,1.1c-0.3,0-0.6,0-0.9,0C18.1,23.4,15.5,22.3,15.4,20.7z M22,17.7c-3.4,0.2-6.3,1.6-6.2,3
					c0.1,1.4,3.1,2.4,6.5,2.3c1.7-0.1,3.3-0.5,4.5-1.1c1.1-0.6,1.7-1.3,1.7-1.9c-0.1-1.3-2.6-2.3-5.7-2.3
					C22.6,17.7,22.3,17.7,22,17.7z"/>
			</g>
		</g>
		<g>
			<g>
				<path class="st3" d="M28.9,24.2c0.1,1.6-2.7,3-6.3,3.2S16,26.5,15.9,25c1.9,0.5,4.9,1.1,8.6,0.5C26.3,25.1,27.7,24.6,28.9,24.2z
					"/>
			</g>
			<g>
				<path class="st4" d="M17.9,27c-1.3-0.5-2.1-1.2-2.1-2l0-0.3l0.3,0.1c2.8,0.8,5.7,0.9,8.5,0.5c1.5-0.3,2.9-0.7,4.3-1.3l0.3-0.1
					l0,0.3c0.1,0.8-0.6,1.7-1.9,2.3c-1.2,0.6-2.8,1-4.6,1.1c-0.3,0-0.6,0-1,0C20.2,27.6,18.9,27.4,17.9,27z M24.6,25.6
					c-2.8,0.5-5.6,0.4-8.4-0.4c0.2,0.5,0.8,1,1.8,1.4c1.2,0.4,2.8,0.6,4.5,0.5s3.3-0.5,4.4-1.1c0.9-0.5,1.5-1.1,1.6-1.6
					C27.3,25,26,25.4,24.6,25.6z"/>
			</g>
		</g>
		<g>
			<g>
				<path class="st5" d="M28.7,19.9c0.1,1.6-2.8,3-6.4,3.2s-6.6-0.9-6.7-2.4l0.3,2.2c0.3,0.4,0.6,0.5,0.8,0.6c0.4,0.1,0.5,0,1.1,0.1
					c0.4,0.1,0.4,0.2,0.9,0.2c0.4,0.1,0.5,0,1,0.1c0.7,0.1,0.7,0.2,1.1,0.2c0.6,0,0.6-0.1,1.4-0.2c0.7,0,0.7,0.1,1.3,0.1
					c0.7-0.1,0.7-0.3,1.4-0.4c0.7-0.1,0.7,0.1,1.1-0.1c0.6-0.2,0.6-0.5,1.1-0.5c0.3,0,0.4,0,0.7-0.1c0.2-0.1,0.2-0.2,0.4-0.3
					c0.2-0.1,0.4-0.2,0.5-0.2C28.8,21.7,28.8,20.8,28.7,19.9z"/>
			</g>
			<g>
				<path class="st4" d="M20.9,24.4c-0.2,0-0.4,0-0.5-0.1c-0.1,0-0.3-0.1-0.6-0.1c-0.3,0-0.4,0-0.5-0.1c-0.1,0-0.3,0-0.5-0.1
					c-0.3,0-0.4-0.1-0.5-0.1c-0.1,0-0.2-0.1-0.4-0.1c-0.3,0-0.5,0-0.6-0.1c-0.2,0-0.3,0-0.6-0.1c-0.3-0.1-0.6-0.3-0.8-0.7l0,0
					l-0.3-2.1c0-0.1,0-0.1,0-0.2l0.4,0l0,0.2c0.3,1.3,3.2,2.3,6.5,2.1c1.7-0.1,3.3-0.5,4.5-1.1c1.1-0.5,1.7-1.2,1.7-1.9l0,0l0.4,0
					c0,0,0,0,0,0l0.1,2.7l-0.2,0c-0.2,0-0.3,0.1-0.5,0.2c-0.1,0.1-0.1,0.1-0.2,0.1c-0.1,0.1-0.1,0.1-0.2,0.2
					c-0.2,0.1-0.4,0.1-0.6,0.1c-0.1,0-0.1,0-0.2,0c-0.2,0-0.3,0.1-0.5,0.2c-0.1,0.1-0.3,0.2-0.6,0.3c-0.3,0.1-0.4,0.1-0.6,0.1
					c-0.1,0-0.3,0-0.6,0c-0.4,0.1-0.5,0.1-0.7,0.2c-0.2,0.1-0.4,0.2-0.7,0.2c-0.3,0-0.5,0-0.6,0c-0.2,0-0.3-0.1-0.7,0
					c-0.3,0-0.5,0.1-0.7,0.1c-0.2,0-0.3,0.1-0.5,0.1C21,24.4,20.9,24.4,20.9,24.4z M23,23.9c0.2,0,0.3,0,0.5,0
					c0.3,0,0.5-0.1,0.6-0.2c0.2-0.1,0.4-0.2,0.8-0.2c0.3,0,0.5,0,0.7,0c0.1,0,0.2,0,0.4,0c0.2-0.1,0.4-0.2,0.5-0.2
					c0.2-0.1,0.4-0.2,0.7-0.2c0.1,0,0.2,0,0.2,0c0.2,0,0.2,0,0.3-0.1c0.1,0,0.1-0.1,0.1-0.1c0-0.1,0.1-0.1,0.2-0.2
					c0.1-0.1,0.3-0.2,0.5-0.2L28.6,21c-0.3,0.4-0.8,0.8-1.6,1.2c-1.2,0.6-2.9,1-4.7,1.1c-2.9,0.2-5.3-0.5-6.4-1.5l0.1,1
					c0.2,0.2,0.4,0.4,0.6,0.5c0.2,0.1,0.3,0.1,0.4,0.1c0.2,0,0.4,0,0.7,0.1c0.2,0,0.4,0.1,0.5,0.1c0.1,0,0.2,0.1,0.5,0.1
					c0.2,0,0.3,0,0.5,0c0.1,0,0.3,0,0.6,0.1c0.3,0.1,0.5,0.1,0.6,0.1c0.1,0,0.2,0.1,0.4,0.1c0.3,0,0.4,0,0.6-0.1
					c0.2,0,0.4-0.1,0.7-0.1c0.1,0,0.2,0,0.2,0C22.7,23.9,22.9,23.9,23,23.9z"/>
			</g>
		</g>
		<g>
			<g>
				<path class="st5" d="M28.9,24.2c-1.2,0.5-2.6,1-4.3,1.3c-3.7,0.6-6.7,0.1-8.6-0.5c0-0.3,0-0.7,0-1c0.1,0.1,0.2,0.1,0.4,0.2
					c0.3,0.1,0.5,0,0.8,0c0.4,0.1,0.4,0.3,0.8,0.4c0.3,0.1,0.3,0,0.7,0c0.4,0,0.5,0.1,0.8,0.2c0.5,0.1,0.7,0,1.3,0
					c0.7,0,0.6,0.1,1.3,0.2c0.7,0,1.4-0.1,2.2-0.3c0.4-0.1,0.6-0.2,1.1-0.2c0.4-0.1,0.5-0.1,0.8-0.1c0.4-0.1,0.4-0.2,0.8-0.3
					c0.5-0.2,0.6-0.1,1-0.2c0.2-0.1,0.6-0.2,1-0.6C28.8,23.5,28.8,23.8,28.9,24.2z"/>
			</g>
			<g>
				<path class="st4" d="M15.9,25.2l-0.1,0l0-1.6l0.3,0.3c0.1,0.1,0.2,0.1,0.3,0.2c0.1,0.1,0.2,0,0.4,0c0.1,0,0.2,0,0.4,0
					c0.2,0,0.4,0.1,0.5,0.2c0.1,0.1,0.2,0.1,0.4,0.2c0.1,0,0.2,0,0.3,0c0.1,0,0.2,0,0.4,0c0.3,0,0.4,0.1,0.5,0.1
					c0.1,0,0.2,0.1,0.3,0.1c0.3,0.1,0.4,0,0.7,0c0.2,0,0.3,0,0.6,0c0.4,0,0.6,0,0.7,0.1c0.1,0,0.3,0.1,0.6,0.1
					c0.7,0,1.3-0.1,2.2-0.3c0.1,0,0.2-0.1,0.3-0.1c0.2-0.1,0.4-0.1,0.7-0.1c0.1,0,0.2,0,0.3,0c0.2,0,0.3,0,0.4-0.1
					c0.2-0.1,0.3-0.1,0.4-0.2c0.1,0,0.2-0.1,0.4-0.2c0.3-0.1,0.4-0.1,0.6-0.1c0.1,0,0.2,0,0.4-0.1c0.3-0.1,0.6-0.3,0.9-0.5l0.3-0.3
					l0.1,1.5l-0.1,0.1c-1.4,0.6-2.9,1-4.3,1.3c-1.1,0.2-2.2,0.3-3.3,0.3C19.5,25.9,17.7,25.7,15.9,25.2z M28.6,23.6
					c-0.2,0.2-0.5,0.3-0.7,0.3c-0.2,0.1-0.3,0.1-0.5,0.1c-0.1,0-0.3,0-0.5,0.1c-0.2,0.1-0.2,0.1-0.3,0.1c-0.1,0.1-0.2,0.1-0.5,0.2
					c-0.2,0.1-0.3,0.1-0.5,0.1c-0.1,0-0.2,0-0.3,0c-0.3,0-0.5,0.1-0.7,0.1c-0.1,0-0.2,0.1-0.3,0.1c-0.8,0.2-1.5,0.3-2.3,0.3
					c-0.3,0-0.5-0.1-0.7-0.1c-0.2,0-0.3-0.1-0.6-0.1c-0.2,0-0.4,0-0.6,0c-0.3,0-0.5,0-0.8,0c-0.1,0-0.2-0.1-0.3-0.1
					c-0.1,0-0.2-0.1-0.5-0.1c-0.2,0-0.3,0-0.4,0c-0.1,0-0.2,0-0.4,0c-0.3-0.1-0.4-0.2-0.5-0.2c-0.1-0.1-0.2-0.1-0.3-0.1
					c-0.1,0-0.2,0-0.3,0c-0.1,0-0.3,0-0.5,0c0,0-0.1,0-0.1,0l0,0.5c2.8,0.8,5.6,0.9,8.4,0.4c1.4-0.2,2.8-0.6,4.1-1.2L28.6,23.6z"/>
			</g>
		</g>
		<g>
			<g>
				<path class="st6" d="M15.9,23.9c0.1,0.1,0.2,0.1,0.4,0.2c0.3,0.1,0.5,0,0.8,0c0.4,0.1,0.4,0.3,0.8,0.4c0.3,0.1,0.3,0,0.7,0
					c0.4,0,0.5,0.1,0.8,0.2c0.5,0.1,0.7,0,1.3,0c0.7,0,0.6,0.1,1.3,0.2c0.7,0,1.4-0.1,2.2-0.3c0.4-0.1,0.6-0.2,1.1-0.2
					c0.4-0.1,0.5-0.1,0.8-0.1c0.4-0.1,0.4-0.2,0.8-0.3c0.5-0.2,0.6-0.1,1-0.2c0.2-0.1,0.6-0.2,1-0.6l0-0.7c-0.1,0-0.3,0.1-0.5,0.2
					c-0.2,0.1-0.2,0.2-0.4,0.3c-0.2,0.1-0.4,0.1-0.7,0.1c-0.5,0-0.6,0.3-1.1,0.5c-0.5,0.1-0.5,0-1.1,0.1c-0.8,0.1-0.8,0.3-1.4,0.4
					C23,24.2,23,24,22.3,24.1c-0.7,0-0.8,0.2-1.4,0.2c-0.4,0-0.4-0.1-1.1-0.2c-0.5-0.1-0.6,0-1-0.1c-0.5-0.1-0.5-0.2-0.9-0.2
					c-0.6-0.1-0.8,0-1.1-0.1c-0.2-0.1-0.5-0.2-0.8-0.6L15.9,23.9z"/>
			</g>
			<g>
				<path class="st4" d="M22.1,25.1c-0.3,0-0.5-0.1-0.7-0.1c-0.2,0-0.3-0.1-0.6-0.1c-0.2,0-0.4,0-0.6,0c-0.3,0-0.5,0-0.8,0
					c-0.1,0-0.2-0.1-0.3-0.1c-0.1,0-0.2-0.1-0.5-0.1c-0.2,0-0.3,0-0.4,0c-0.1,0-0.2,0-0.4,0c-0.3-0.1-0.4-0.2-0.5-0.2
					c-0.1-0.1-0.2-0.1-0.3-0.1c-0.1,0-0.2,0-0.3,0c-0.1,0-0.3,0-0.5,0c-0.1,0-0.3-0.1-0.4-0.2L15.7,24l0-1.7l0.4,0.5
					c0.2,0.3,0.4,0.4,0.7,0.5c0.2,0.1,0.3,0.1,0.4,0.1c0.2,0,0.4,0,0.7,0.1c0.2,0,0.4,0.1,0.5,0.1c0.1,0,0.2,0.1,0.5,0.1
					c0.2,0,0.3,0,0.5,0c0.1,0,0.3,0,0.6,0.1c0.3,0.1,0.5,0.1,0.6,0.1c0.1,0,0.2,0.1,0.4,0.1c0.3,0,0.4,0,0.6-0.1
					c0.2,0,0.4-0.1,0.7-0.1c0.4,0,0.6,0,0.8,0c0.2,0,0.3,0,0.5,0c0.3,0,0.5-0.1,0.6-0.2c0.2-0.1,0.4-0.2,0.8-0.2c0.3,0,0.5,0,0.7,0
					c0.1,0,0.2,0,0.4,0c0.2-0.1,0.4-0.2,0.5-0.2c0.2-0.1,0.4-0.2,0.7-0.2c0.1,0,0.2,0,0.2,0c0.2,0,0.2,0,0.3-0.1
					c0.1,0,0.1-0.1,0.1-0.1c0-0.1,0.1-0.1,0.2-0.2c0.2-0.1,0.4-0.2,0.6-0.3l0.3,0L29,23.3l-0.1,0.1c-0.3,0.3-0.7,0.5-1,0.6
					c-0.2,0.1-0.3,0.1-0.5,0.1c-0.1,0-0.3,0-0.5,0.1c-0.2,0.1-0.2,0.1-0.3,0.1c-0.1,0.1-0.2,0.1-0.5,0.2c-0.2,0.1-0.3,0.1-0.5,0.1
					c-0.1,0-0.2,0-0.3,0c-0.3,0-0.5,0.1-0.7,0.1c-0.1,0-0.2,0.1-0.3,0.1c-0.7,0.2-1.3,0.3-2,0.3C22.3,25.1,22.2,25.1,22.1,25.1z
					 M28.6,22.8c-0.1,0-0.1,0.1-0.2,0.1c-0.1,0.1-0.1,0.1-0.2,0.1c-0.1,0.1-0.1,0.1-0.2,0.2c-0.2,0.1-0.4,0.1-0.6,0.1
					c-0.1,0-0.1,0-0.2,0c-0.2,0-0.3,0.1-0.5,0.2c-0.1,0.1-0.3,0.2-0.6,0.3c-0.3,0.1-0.4,0.1-0.6,0.1c-0.1,0-0.3,0-0.6,0
					c-0.4,0.1-0.5,0.1-0.7,0.2c-0.2,0.1-0.4,0.2-0.7,0.2c-0.3,0-0.5,0-0.6,0c-0.2,0-0.3-0.1-0.7,0c-0.3,0-0.5,0.1-0.7,0.1
					c-0.2,0-0.4,0.1-0.7,0.1c-0.2,0-0.4,0-0.5-0.1c-0.1,0-0.3-0.1-0.6-0.1c-0.3,0-0.4,0-0.5-0.1c-0.1,0-0.3,0-0.5-0.1
					c-0.3,0-0.4-0.1-0.5-0.1c-0.1,0-0.2-0.1-0.4-0.1c-0.3,0-0.5,0-0.6-0.1c-0.2,0-0.3,0-0.6-0.1c-0.2-0.1-0.3-0.2-0.5-0.3l0,0.4
					c0.1,0,0.1,0.1,0.2,0.1c0.1,0.1,0.2,0,0.4,0c0.1,0,0.2,0,0.4,0c0.2,0,0.4,0.1,0.5,0.2c0.1,0.1,0.2,0.1,0.4,0.2
					c0.1,0,0.2,0,0.3,0c0.1,0,0.2,0,0.4,0c0.3,0,0.4,0.1,0.5,0.1c0.1,0,0.2,0.1,0.3,0.1c0.3,0.1,0.4,0,0.7,0c0.2,0,0.3,0,0.6,0
					c0.4,0,0.6,0,0.7,0.1c0.1,0,0.3,0.1,0.6,0.1c0.7,0,1.3-0.1,2.2-0.3c0.1,0,0.2-0.1,0.3-0.1c0.2-0.1,0.4-0.1,0.7-0.1
					c0.1,0,0.2,0,0.3,0c0.2,0,0.3,0,0.4-0.1c0.2-0.1,0.3-0.1,0.4-0.2c0.1,0,0.2-0.1,0.4-0.2c0.3-0.1,0.4-0.1,0.6-0.1
					c0.1,0,0.2,0,0.4-0.1c0.3-0.1,0.6-0.2,0.8-0.5L28.6,22.8z"/>
			</g>
		</g>
	</g>
	<g>
		<g>
			<g>
				<ellipse transform="matrix(0.7573 -0.653 0.653 0.7573 -9.6081 12.9577)" class="st7" cx="12.6" cy="19.4" rx="6.6" ry="2.8"/>
			</g>
			<g>
				<path class="st8" d="M7.5,23.8c-1.1-1.3,0.3-4.2,3.2-6.7l0,0c2.9-2.5,6-3.4,7.1-2.1c1.1,1.3-0.3,4.2-3.2,6.7
					c-2,1.7-4.1,2.7-5.6,2.7C8.4,24.4,7.8,24.2,7.5,23.8z M10.9,17.4L10.9,17.4c-2.6,2.3-4,5.1-3.1,6.1c0.9,1.1,3.9,0.1,6.5-2.2
					c2.6-2.3,4-5.1,3.1-6.1c-0.3-0.3-0.7-0.4-1.2-0.4C14.9,14.8,12.8,15.8,10.9,17.4z"/>
			</g>
		</g>
		<g>
			<g>
				<path class="st7" d="M20.3,18.4c1,1.2-0.3,4-3,6.4s-5.7,3.3-6.7,2.1c1.8-0.7,4.6-2.1,7.1-4.9C18.8,20.7,19.6,19.5,20.3,18.4z"/>
			</g>
			<g>
				<path class="st8" d="M10.4,27l-0.2-0.2l0.3-0.1c2.7-1.1,5.1-2.7,7-4.8c1-1.1,1.9-2.3,2.6-3.6l0.1-0.2l0.2,0.2
					c1.1,1.3-0.2,4.2-3,6.7c-2,1.7-4,2.7-5.5,2.7C11.2,27.6,10.7,27.4,10.4,27z M17.8,22.1c-1.9,2.1-4.2,3.7-6.9,4.8
					c1.1,0.7,3.8-0.3,6.2-2.3c2.4-2.1,3.7-4.6,3.2-5.8C19.6,20,18.7,21.1,17.8,22.1z"/>
			</g>
		</g>
		<g>
			<g>
				<path class="st9" d="M17.6,15.1c1,1.2-0.4,4.1-3.1,6.4s-5.8,3.3-6.8,2.2l1.6,1.6c0.4,0.1,0.8,0.1,1,0c0.4-0.1,0.4-0.3,1-0.6
					c0.4-0.2,0.4-0.1,0.9-0.4c0.4-0.2,0.4-0.3,0.9-0.6c0.6-0.3,0.7-0.3,1-0.5c0.5-0.3,0.4-0.5,1-1c0.6-0.5,0.6-0.3,1.1-0.7
					c0.5-0.5,0.4-0.6,0.9-1.2c0.5-0.5,0.6-0.4,0.8-0.7c0.3-0.5,0.2-0.7,0.6-1.1c0.2-0.2,0.4-0.2,0.5-0.5c0.1-0.2,0-0.3,0.1-0.5
					c0.1-0.2,0.2-0.4,0.3-0.5C18.7,16.4,18.2,15.8,17.6,15.1z"/>
			</g>
			<g>
				<path class="st8" d="M9.2,25.5L9.2,25.5L7.7,24c-0.1,0-0.1-0.1-0.1-0.1l0.3-0.3l0.1,0.1C8.2,23.9,8.5,24,9,24
					c1.4,0,3.5-1,5.3-2.6c2.6-2.2,4-5,3.1-6.1l0,0l0.3-0.3c0,0,0,0,0,0l1.7,2.1l-0.1,0.1c-0.1,0.1-0.2,0.3-0.2,0.4
					c0,0.1,0,0.1,0,0.2c0,0.1,0,0.2-0.1,0.3c-0.1,0.2-0.2,0.3-0.4,0.4c-0.1,0-0.1,0.1-0.2,0.1c-0.2,0.1-0.2,0.3-0.3,0.5
					c-0.1,0.2-0.1,0.4-0.3,0.6c-0.2,0.2-0.3,0.3-0.4,0.4c-0.1,0.1-0.2,0.2-0.4,0.4c-0.3,0.3-0.4,0.4-0.4,0.6
					c-0.1,0.2-0.2,0.4-0.5,0.6C16,22,15.8,22,15.7,22.1c-0.1,0.1-0.3,0.1-0.6,0.4c-0.2,0.2-0.4,0.4-0.5,0.5
					c-0.1,0.2-0.2,0.3-0.5,0.5c-0.2,0.1-0.3,0.2-0.5,0.2c-0.1,0.1-0.3,0.1-0.6,0.3c-0.2,0.1-0.3,0.2-0.5,0.3
					c-0.1,0.1-0.2,0.2-0.4,0.3c-0.2,0.1-0.4,0.2-0.5,0.2c-0.1,0-0.2,0.1-0.4,0.2c-0.3,0.1-0.4,0.2-0.5,0.3c-0.1,0.1-0.3,0.2-0.5,0.3
					c-0.2,0-0.3,0.1-0.5,0.1C9.6,25.6,9.4,25.5,9.2,25.5z M18.1,16.1c0,1.5-1.3,3.7-3.5,5.6c-2,1.7-4.1,2.7-5.6,2.7
					c-0.1,0-0.3,0-0.4,0l0.7,0.7c0.3,0.1,0.6,0.1,0.8,0c0.2-0.1,0.2-0.1,0.4-0.2c0.1-0.1,0.3-0.2,0.6-0.4c0.2-0.1,0.3-0.2,0.4-0.2
					c0.1,0,0.2-0.1,0.4-0.2c0.2-0.1,0.3-0.2,0.4-0.2c0.1-0.1,0.2-0.2,0.5-0.3c0.3-0.2,0.5-0.2,0.6-0.3c0.1-0.1,0.2-0.1,0.4-0.2
					c0.2-0.2,0.3-0.3,0.4-0.4c0.1-0.1,0.2-0.3,0.5-0.5c0.3-0.3,0.5-0.3,0.6-0.4c0.1-0.1,0.2-0.1,0.4-0.3c0.2-0.2,0.3-0.3,0.4-0.5
					c0.1-0.2,0.2-0.4,0.5-0.7c0.2-0.2,0.4-0.3,0.5-0.4c0.1-0.1,0.2-0.1,0.3-0.3c0.1-0.2,0.2-0.3,0.2-0.5c0.1-0.2,0.1-0.4,0.4-0.6
					c0.1-0.1,0.1-0.1,0.2-0.1c0.1-0.1,0.2-0.1,0.2-0.3c0-0.1,0-0.1,0-0.2c0-0.1,0-0.2,0-0.3c0-0.2,0.1-0.3,0.2-0.5L18.1,16.1z"/>
			</g>
		</g>
		<g>
			<g>
				<path class="st9" d="M20.3,18.4c-0.6,1.1-1.5,2.4-2.6,3.6c-2.5,2.7-5.3,4.2-7.1,4.9c-0.2-0.3-0.4-0.5-0.7-0.8
					c0.1,0,0.2,0,0.4-0.1c0.3-0.1,0.4-0.3,0.7-0.5c0.3-0.2,0.4,0,0.9-0.2c0.3-0.1,0.3-0.2,0.6-0.4c0.3-0.2,0.5-0.2,0.8-0.3
					c0.5-0.2,0.5-0.4,1.1-0.8c0.5-0.4,0.6-0.3,1.2-0.7c0.6-0.4,1-0.9,1.6-1.6c0.3-0.3,0.4-0.5,0.7-0.8c0.3-0.3,0.4-0.3,0.5-0.6
					c0.2-0.3,0.2-0.4,0.4-0.7c0.3-0.4,0.4-0.4,0.7-0.7c0.1-0.2,0.3-0.5,0.4-1C19.9,17.9,20.1,18.2,20.3,18.4z"/>
			</g>
			<g>
				<path class="st8" d="M9.4,25.9l0.4,0c0.1,0,0.2,0,0.3-0.1c0.1-0.1,0.2-0.1,0.3-0.2c0.1-0.1,0.2-0.2,0.3-0.3
					c0.2-0.1,0.4-0.1,0.5-0.1c0.1,0,0.2,0,0.4-0.1c0.1-0.1,0.2-0.1,0.2-0.2c0.1-0.1,0.2-0.1,0.3-0.2c0.2-0.1,0.4-0.2,0.5-0.2
					c0.1,0,0.2-0.1,0.3-0.1c0.3-0.1,0.4-0.2,0.6-0.4c0.1-0.1,0.2-0.2,0.5-0.4c0.3-0.2,0.5-0.3,0.6-0.4c0.1-0.1,0.3-0.1,0.5-0.3
					c0.6-0.4,1-0.9,1.5-1.5c0.1-0.1,0.2-0.2,0.2-0.3c0.1-0.2,0.3-0.3,0.5-0.6c0.1-0.1,0.1-0.1,0.2-0.2c0.1-0.1,0.2-0.2,0.3-0.3
					c0.1-0.2,0.2-0.2,0.2-0.4c0-0.1,0.1-0.2,0.2-0.4c0.2-0.2,0.3-0.4,0.4-0.5c0.1-0.1,0.2-0.1,0.3-0.3c0.2-0.3,0.3-0.6,0.4-0.9
					l0.1-0.4l1,1.1l-0.1,0.1c-0.7,1.3-1.6,2.6-2.7,3.7c-2,2.1-4.4,3.8-7.2,4.9l-0.1,0.1L9.4,25.9z M19.8,18.1
					c-0.1,0.3-0.2,0.5-0.4,0.7c-0.1,0.2-0.2,0.2-0.3,0.3c-0.1,0.1-0.2,0.2-0.3,0.4c-0.1,0.1-0.1,0.2-0.2,0.3
					c-0.1,0.1-0.1,0.2-0.2,0.4c-0.1,0.2-0.2,0.3-0.3,0.4c-0.1,0.1-0.1,0.1-0.2,0.2c-0.2,0.2-0.3,0.4-0.5,0.5
					c-0.1,0.1-0.1,0.2-0.2,0.3c-0.5,0.7-1,1.2-1.6,1.6c-0.3,0.2-0.4,0.3-0.6,0.3c-0.2,0.1-0.3,0.1-0.5,0.3c-0.2,0.1-0.3,0.3-0.4,0.4
					c-0.2,0.2-0.3,0.3-0.7,0.5c-0.1,0.1-0.2,0.1-0.3,0.1c-0.1,0-0.2,0.1-0.4,0.2c-0.1,0.1-0.2,0.1-0.3,0.2c-0.1,0.1-0.2,0.1-0.3,0.2
					c-0.3,0.1-0.4,0.1-0.5,0.1c-0.1,0-0.2,0-0.3,0.1c-0.1,0.1-0.2,0.1-0.2,0.2c-0.1,0.1-0.2,0.2-0.5,0.3c0,0-0.1,0-0.1,0l0.3,0.4
					c2.7-1.1,5-2.7,6.9-4.8c1-1,1.8-2.2,2.5-3.5L19.8,18.1z"/>
			</g>
		</g>
		<g>
			<g>
				<path class="st6" d="M9.9,26.1c0.1,0,0.2,0,0.4-0.1c0.3-0.1,0.4-0.3,0.7-0.5c0.3-0.2,0.4,0,0.9-0.2c0.3-0.1,0.3-0.2,0.6-0.4
					c0.3-0.2,0.5-0.2,0.8-0.3c0.5-0.2,0.5-0.4,1.1-0.8c0.5-0.4,0.6-0.3,1.2-0.7c0.6-0.4,1-0.9,1.6-1.6c0.3-0.3,0.4-0.5,0.7-0.8
					c0.3-0.3,0.4-0.3,0.5-0.6c0.2-0.3,0.2-0.4,0.4-0.7c0.3-0.4,0.4-0.4,0.7-0.7c0.1-0.2,0.3-0.5,0.4-1l-0.4-0.6
					c-0.1,0.1-0.2,0.3-0.3,0.5c-0.1,0.2,0,0.3-0.1,0.5c-0.1,0.2-0.3,0.3-0.5,0.5c-0.4,0.3-0.3,0.6-0.6,1.1c-0.3,0.4-0.4,0.3-0.8,0.7
					c-0.5,0.6-0.4,0.7-0.9,1.2c-0.4,0.4-0.5,0.3-1.1,0.7c-0.6,0.5-0.5,0.6-1,1c-0.3,0.2-0.4,0.2-1,0.5c-0.5,0.3-0.5,0.4-0.9,0.6
					c-0.4,0.2-0.5,0.2-0.9,0.4c-0.6,0.3-0.6,0.5-1,0.6c-0.2,0.1-0.5,0.1-1,0L9.9,26.1z"/>
			</g>
			<g>
				<path class="st8" d="M9.9,26.3L9.9,26.3l-1.1-1.4l0.6,0.2c0.3,0.1,0.6,0.1,0.9,0c0.2-0.1,0.2-0.1,0.4-0.2
					c0.1-0.1,0.3-0.2,0.6-0.4c0.2-0.1,0.3-0.2,0.4-0.2c0.1,0,0.2-0.1,0.4-0.2c0.2-0.1,0.3-0.2,0.4-0.2c0.1-0.1,0.2-0.2,0.5-0.3
					c0.3-0.2,0.5-0.2,0.6-0.3c0.1-0.1,0.2-0.1,0.4-0.2c0.2-0.2,0.3-0.3,0.4-0.4c0.1-0.1,0.2-0.3,0.5-0.5c0.3-0.3,0.5-0.3,0.6-0.4
					c0.1-0.1,0.2-0.1,0.4-0.3c0.2-0.2,0.3-0.3,0.4-0.5c0.1-0.2,0.2-0.4,0.5-0.7c0.2-0.2,0.4-0.3,0.5-0.4c0.1-0.1,0.2-0.1,0.3-0.3
					c0.1-0.2,0.2-0.3,0.2-0.5c0.1-0.2,0.1-0.4,0.4-0.6c0.1-0.1,0.1-0.1,0.2-0.1c0.1-0.1,0.2-0.1,0.2-0.3c0-0.1,0-0.1,0-0.2
					c0-0.1,0-0.2,0-0.3c0.1-0.2,0.2-0.4,0.3-0.6l0.2-0.2l0.6,0.9l0,0.1c-0.1,0.4-0.2,0.8-0.5,1.1c-0.1,0.2-0.2,0.2-0.3,0.3
					c-0.1,0.1-0.2,0.2-0.3,0.4c-0.1,0.1-0.1,0.2-0.2,0.3c-0.1,0.1-0.1,0.2-0.2,0.4c-0.1,0.2-0.2,0.3-0.3,0.4
					c-0.1,0.1-0.1,0.1-0.2,0.2c-0.2,0.2-0.3,0.4-0.5,0.5c-0.1,0.1-0.1,0.2-0.2,0.3c-0.5,0.7-1,1.2-1.6,1.6c-0.3,0.2-0.4,0.3-0.6,0.3
					c-0.2,0.1-0.3,0.1-0.5,0.3c-0.2,0.1-0.3,0.3-0.4,0.4c-0.2,0.2-0.3,0.3-0.7,0.5c-0.1,0.1-0.2,0.1-0.3,0.1c-0.1,0-0.2,0.1-0.4,0.2
					c-0.1,0.1-0.2,0.1-0.3,0.2c-0.1,0.1-0.2,0.1-0.3,0.2c-0.3,0.1-0.4,0.1-0.5,0.1c-0.1,0-0.2,0-0.3,0.1c-0.1,0.1-0.2,0.1-0.2,0.2
					c-0.1,0.1-0.2,0.2-0.5,0.3C10.2,26.3,10,26.3,9.9,26.3C9.9,26.3,9.9,26.3,9.9,26.3z M19.3,17.5c0,0.1-0.1,0.1-0.1,0.2
					c0,0.1,0,0.1,0,0.2c0,0.1,0,0.2-0.1,0.3c-0.1,0.2-0.2,0.3-0.4,0.4c-0.1,0-0.1,0.1-0.2,0.1c-0.2,0.1-0.2,0.3-0.3,0.5
					c-0.1,0.2-0.1,0.4-0.3,0.6c-0.2,0.2-0.3,0.3-0.4,0.4c-0.1,0.1-0.2,0.2-0.4,0.4c-0.3,0.3-0.4,0.4-0.4,0.6
					c-0.1,0.2-0.2,0.4-0.5,0.6C16,22,15.8,22,15.7,22.1c-0.1,0.1-0.3,0.1-0.6,0.4c-0.2,0.2-0.4,0.4-0.5,0.5
					c-0.1,0.2-0.2,0.3-0.5,0.5c-0.2,0.1-0.3,0.2-0.5,0.2c-0.1,0.1-0.3,0.1-0.6,0.3c-0.2,0.1-0.3,0.2-0.5,0.3
					c-0.1,0.1-0.2,0.2-0.4,0.3c-0.2,0.1-0.4,0.2-0.5,0.2c-0.1,0-0.2,0.1-0.4,0.2c-0.3,0.1-0.4,0.2-0.5,0.3c-0.1,0.1-0.3,0.2-0.5,0.3
					c-0.2,0.1-0.4,0.1-0.6,0.1l0.2,0.3c0.1,0,0.2,0,0.2,0c0.1-0.1,0.2-0.1,0.3-0.2c0.1-0.1,0.2-0.2,0.3-0.3c0.2-0.1,0.4-0.1,0.5-0.1
					c0.1,0,0.2,0,0.4-0.1c0.1-0.1,0.2-0.1,0.2-0.2c0.1-0.1,0.2-0.1,0.3-0.2c0.2-0.1,0.4-0.2,0.5-0.2c0.1,0,0.2-0.1,0.3-0.1
					c0.3-0.1,0.4-0.2,0.6-0.4c0.1-0.1,0.2-0.2,0.5-0.4c0.3-0.2,0.5-0.3,0.6-0.4c0.1-0.1,0.3-0.1,0.5-0.3c0.6-0.4,1-0.9,1.5-1.5
					c0.1-0.1,0.2-0.2,0.2-0.3c0.1-0.2,0.3-0.3,0.5-0.6c0.1-0.1,0.1-0.1,0.2-0.2c0.1-0.1,0.2-0.2,0.3-0.3c0.1-0.2,0.2-0.2,0.2-0.4
					c0-0.1,0.1-0.2,0.2-0.4c0.2-0.2,0.3-0.4,0.4-0.5c0.1-0.1,0.2-0.1,0.3-0.3c0.2-0.2,0.3-0.5,0.4-0.9L19.3,17.5z"/>
			</g>
		</g>
	</g>
</g>
</svg>
